<svg width="1024" height="1536" viewBox="0 0 1024 1536" fill="none" xmlns="http://www.w3.org/2000/svg">
<g clip-path="url(#clip0_1_2)">
<path id="middle_trapezius_left" d="M448.169 338.065L509 352.074C508.774 381.243 508.898 410.416 508.928 439.584C508.939 450.673 508.945 461.763 508.95 472.852C508.96 495.568 508.977 518.284 509 541C507.891 540.07 506.785 539.137 505.68 538.202C505.064 537.683 504.448 537.163 503.813 536.628C500.985 534.089 498.653 531.235 496.313 528.25C495.805 527.608 495.297 526.966 494.774 526.305C488.715 518.517 483.305 510.312 478 502C477.339 500.978 477.339 500.978 476.666 499.935C467.605 485.841 462.412 473.328 466.084 456.354C467.446 450.543 469.053 444.798 470.648 439.047C483.262 398.99 483.262 398.99 477 359C470.839 348.421 459.659 342.016 448.169 338.065Z" fill="#A0A0A1"/>
<path id="upper_trapezius" d="M460.187 276.563C460.804 276.269 461.421 275.975 462.056 275.673C469.973 271.769 475.49 266.347 478.754 258.094H512.384H546.015C547.136 261.367 548.787 264.431 551.16 267.105C557.782 273.926 565.295 277.834 573.985 281.511C577.233 282.889 580.46 284.314 583.687 285.738C584.325 286.019 584.962 286.299 585.619 286.588C593.988 290.291 602.002 294.566 610 299C610.952 299.521 611.904 300.043 612.885 300.58C615.971 302.271 619.049 303.977 622.125 305.687C623.074 306.21 624.022 306.733 625 307.271C631.1 310.706 636.601 314.544 642 319C641 321 641 321 639.159 321.759C638.35 321.997 637.541 322.235 636.707 322.48C635.781 322.754 634.856 323.027 633.902 323.309C632.883 323.599 631.863 323.889 630.813 324.187C629.756 324.493 628.7 324.798 627.612 325.113C618.949 327.565 610.214 329.632 601.437 331.625C587.655 334.616 580.246 336.224 573.985 338.951L514.768 352.074C514.702 346.174 514.624 340.275 514.531 334.375C514.52 333.689 514.51 333.003 514.499 332.297C514.165 311.194 513.715 290.094 513 269C512.34 269 511.68 269 511 269C511.017 269.913 511.017 269.913 511.035 270.844C511.091 276.259 510.92 281.607 510.531 287.01C509.84 297.447 509.63 307.89 509.441 318.348C509.42 319.482 509.399 320.616 509.378 321.784C509.198 331.88 509.078 341.976 509 352.074L448.169 338.065C446.236 337.4 444.295 336.805 442.367 336.271C436.091 334.672 429.776 333.247 423.463 331.806C417.475 330.412 411.518 328.902 405.563 327.375C403.903 326.959 403.903 326.959 402.21 326.535C395.572 324.829 389.29 322.725 383 320C386.616 316.124 390.406 313.204 394.937 310.437C395.628 310.013 396.318 309.588 397.03 309.15C413.531 299.124 430.731 290.594 448.169 282.341C452.187 280.438 456.195 278.517 460.187 276.563Z" fill="#A0A0A1"/>
<path id="middle_trapezius_right" d="M515.075 448.832C515.114 416.576 515.128 384.325 514.768 352.074L573.985 338.951C566.707 342.122 560.981 346.805 548.598 356.934C547.499 358.927 546.723 360.842 546 363C545.705 363.871 545.41 364.743 545.105 365.641C537.579 391.347 547.832 423.355 556.274 447.756C560.991 461.489 560.37 473.797 554 487C545.347 504.467 533.949 520.004 522.154 535.445C521.054 536.928 520.024 538.463 519 540C517.68 540 516.36 540 515 540C515.001 539.196 515.002 538.392 515.003 537.563C515.025 517.628 515.042 497.693 515.052 477.758C515.057 468.116 515.064 458.474 515.075 448.832Z" fill="#A0A0A1"/>
<path id="back_head" d="M468 103C492.402 79.969 531.259 82.545 556.875 101.625C568.956 113.114 574.828 129.996 575.316 146.246C575.337 146.902 575.358 147.558 575.379 148.234C575.444 150.302 575.503 152.37 575.563 154.437C575.606 155.851 575.649 157.264 575.693 158.678C575.8 162.118 575.901 165.559 576 169C576.788 169.131 577.577 169.262 578.389 169.397C581 170 581 170 582.777 171.648C586.53 178.867 584.383 188.67 582.092 196.093C577.206 210.794 577.206 210.794 572 216C569.661 215.713 567.326 215.381 565 215C563.913 233.589 563.381 251.524 566 270C560.023 268.97 556.5 266.683 552.437 262.125C547.948 255.441 545.369 246.885 544 239C543.679 245.327 543.949 252.066 546.015 258.094H478.754C480.399 252.481 480.192 246.799 480 241C479.709 241.978 479.417 242.957 479.117 243.965C475.76 254.859 472.281 263.987 462 270C461.01 270 460.02 270 459 270C459.015 269.33 459.029 268.66 459.045 267.97C459.197 261.011 459.342 254.053 459.482 247.094C459.536 244.495 459.591 241.896 459.648 239.298C459.73 235.567 459.805 231.836 459.879 228.105C459.906 226.94 459.933 225.774 459.961 224.573C459.981 223.492 460.001 222.411 460.022 221.298C460.042 220.345 460.062 219.392 460.082 218.411C460.109 215.855 460.109 215.855 459 213C458.34 213.99 457.68 214.98 457 216C454.035 216 451.846 215.836 449.664 213.68C443.515 204.632 439.916 191.86 439.75 181C439.724 179.989 439.698 178.979 439.672 177.937C440.06 174.459 440.689 172.641 443 170C446.116 169.867 446.116 169.867 449 170C449.015 169.068 449.029 168.137 449.044 167.177C449.106 163.656 449.18 160.136 449.262 156.615C449.295 155.103 449.323 153.592 449.346 152.08C449.654 132.383 453.483 117.177 468 103Z" fill="#A0A0A1"/>
<path id="outer_hamstring_right" d="M568.025 822.048C590.984 822.769 590.984 822.769 613 817C613 816.67 613 816.34 613 816L638 802.494C640.763 812.215 643.219 822.001 645 832C645.177 832.91 645.354 833.82 645.537 834.757C647.299 844.65 647.355 854.424 647.312 864.438C647.309 865.79 647.309 865.79 647.306 867.169C647.206 893.24 643.862 918.433 639.105 944.014C637.904 950.479 636.777 956.954 635.687 963.438C635.528 964.359 635.369 965.281 635.205 966.23C631.581 987.809 633.263 1008.41 636 1030C636.111 1030.88 636.223 1031.76 636.338 1032.67C636.865 1036.79 637.415 1040.89 638 1045C635.237 1041.65 632.798 1038.24 630.5 1034.56C628.053 1030.67 625.574 1026.81 623 1023L580.187 1014.56C582.448 1004.41 584 995.43 583 985C582.936 984.259 582.873 983.517 582.808 982.753C581.579 969.131 578.811 955.814 576.062 942.438C572.622 925.68 569.773 909.031 568 892C567.884 890.906 567.768 889.812 567.649 888.684C565.422 866.508 565.793 844.259 566 822C566.668 822.016 567.336 822.032 568.025 822.048Z" fill="#A1A1A1"/>
<path id="calf_right" d="M580.187 1014.56L623 1023C624.396 1027.76 626.488 1031.81 629 1036.06C637.323 1050.56 644.727 1065.59 649.335 1081.7C649.779 1083.24 650.245 1084.77 650.731 1086.29C654.855 1099.36 655.477 1112.16 655.5 1125.75C655.504 1126.57 655.509 1127.39 655.513 1128.23C655.545 1142.5 655.464 1158.9 648.25 1171.62C647.903 1172.28 647.557 1172.93 647.2 1173.6C643.807 1179.77 639.904 1185.06 634 1189C629.701 1189.64 625.11 1189.96 621.086 1188.12C617.246 1185.13 615.256 1181.19 613 1177C612.34 1176.67 611.68 1176.34 611 1176C610.917 1176.66 610.835 1177.32 610.75 1178C607.506 1190.97 596.551 1200.53 586 1208C585.34 1208 584.68 1208 584 1208C569.552 1172.6 564.884 1145.81 570.474 1107.77C572.158 1096.29 573.067 1084.99 573.289 1073.38C573.679 1053.26 575.759 1034.23 580.187 1014.56Z" fill="#A1A1A1"/>
<path id="glute_right" d="M528.943 695.768C531.836 689.874 534.634 689.062 541.059 689.093C542.091 689.145 543.124 689.197 544.187 689.25C545.789 689.295 545.789 689.295 547.423 689.34C570.463 690.282 593.986 697.814 610 715C618.994 726.286 621.98 739.114 624.277 752.994C626.217 764.153 629.621 774.848 632.965 785.652C634.699 791.263 636.401 796.867 638 802.494L613 816C612.388 816.14 611.776 816.281 611.145 816.425C602.876 818.138 594.723 818.401 586.312 818.374C585.248 818.373 585.248 818.374 584.162 818.372C563.249 818.275 543.316 812.966 527.925 797.981C516.575 786.001 513.426 771.841 513.625 755.688C513.638 753.911 513.638 753.911 513.651 752.098C513.797 743.381 514.61 735.416 517 727C517.278 725.937 517.557 724.874 517.843 723.778C519.597 717.556 521.886 711.618 524.437 705.688C524.713 705.042 524.99 704.396 525.274 703.731C526.134 701.794 527.062 699.901 528 698C528.467 696.895 528.467 696.895 528.943 695.768Z" fill="#A1A1A1"/>
<path id="glute_left" d="M426.803 704.124C443.002 693.826 461.349 689.851 480.312 689.75C481.794 689.719 481.794 689.719 483.306 689.688C484.726 689.68 484.726 689.68 486.175 689.672C487.03 689.663 487.885 689.653 488.766 689.644C491.542 690.087 492.306 690.791 494 693C495.674 695.936 496.999 699.039 498.374 702.125C498.772 703.015 499.17 703.905 499.58 704.822C506.593 720.9 510.368 736.932 510.25 754.5C510.257 755.646 510.265 756.792 510.273 757.973C510.239 772.992 507.446 786.584 496.874 797.875C480.777 812.578 460.929 818.584 439.562 818.25C437.589 818.242 437.589 818.242 435.576 818.234C427.346 818.169 419.195 817.749 411 817L385.652 803.5C388.309 793.93 391.311 784.477 394.535 775.057C397.543 766.101 399.402 757.278 401 748C404.537 730.088 411.18 714.609 426.803 704.124Z" fill="#A1A1A1"/>
<path id="calf_left" d="M401 1024L443.93 1016.44C448.901 1033.62 450.224 1051.2 450.465 1068.99C450.677 1082.84 452.419 1096.31 454.518 1109.99C458.797 1137.88 458.248 1162.71 447.808 1188.95C446.365 1192.61 445 1196.31 443.624 1200C443.117 1201.35 442.61 1202.71 442.102 1204.06C441.557 1205.52 441.556 1205.52 441 1207C432.641 1205.59 425.023 1197.73 419.718 1191.52C417.135 1187.73 415.557 1183.7 414.007 1179.41C413.244 1176.85 413.244 1176.85 411 1176C410.793 1176.68 410.587 1177.36 410.374 1178.06C407.923 1183.3 404.426 1187.75 399.001 1190C394.132 1190.77 391.031 1189.48 387.082 1186.8C374.891 1176.28 370.688 1160.7 369.227 1145.3C367.996 1127.39 367.437 1108.47 372.001 1091C372.356 1089.52 372.711 1088.04 373.066 1086.56C373.456 1085.02 373.851 1083.48 374.251 1081.94C374.418 1081.28 374.585 1080.62 374.758 1079.94C378.73 1065.75 386.147 1052.49 392.937 1039.5C393.725 1037.98 394.512 1036.47 395.298 1034.95C397.193 1031.3 399.095 1027.65 401 1024Z" fill="#A1A1A1"/>
<path id="outer_hamstring_left" d="M382.472 815.719C383.465 811.621 384.527 807.55 385.652 803.5L411 817C425.702 823.342 441.31 822.238 457 822C458.275 825.928 458.179 829.896 458.203 833.98C458.211 834.773 458.217 835.565 458.224 836.381C458.242 838.983 458.248 841.585 458.25 844.188C458.25 845.082 458.251 845.977 458.252 846.899C458.211 881.332 453.296 915.047 446.874 948.812C446.746 949.486 446.618 950.16 446.486 950.855C446.36 951.52 446.234 952.185 446.104 952.871C439.855 984.672 439.855 984.672 443.93 1016.44L401 1024C398.412 1026.47 396.291 1028.84 394.421 1031.89C393.983 1032.6 393.545 1033.31 393.093 1034.04C392.65 1034.77 392.206 1035.5 391.75 1036.25C391.292 1036.99 390.832 1037.74 390.359 1038.51C389.234 1040.34 388.116 1042.17 387 1044C385.73 1040.19 386.34 1037.86 386.996 1033.89C387.229 1032.43 387.46 1030.97 387.691 1029.51C387.814 1028.74 387.936 1027.98 388.063 1027.19C392.675 997.898 390.016 971.836 384.825 942.796C377.801 903.464 371.089 861.442 381 822C381.49 819.906 381.981 817.813 382.472 815.719Z" fill="#A1A1A1"/>
<path id="triceps_right" d="M670.652 411.727C687.654 413.116 707.76 434.72 718.375 447C731.338 463.142 733.756 480.375 736.062 500.313C738.756 523.145 741.4 544.099 752.5 564.563C771.036 598.839 771.082 639.005 773.209 677.129C773.851 687.996 774.909 698.802 776.062 709.625C776.15 710.456 776.239 711.287 776.329 712.142C776.582 714.504 776.838 716.866 777.097 719.227C777.173 719.926 777.249 720.624 777.328 721.344C777.66 724.317 778.044 727.262 778.545 730.212C778.943 732.653 779.136 734.92 779.175 737.387C779.463 748.658 780.372 759.705 781.782 770.88C784.745 794.631 787.51 817.709 777 840C776.695 840.688 776.39 841.375 776.076 842.083C771.471 852.385 765.067 860.19 757 868C756.51 868.479 756.02 868.958 755.516 869.451C742.585 881.982 742.585 881.982 735.187 883.625C733 883 733 883 731.125 881C729.634 877.026 729.719 873.971 731 870C733.621 865.064 737.152 860.793 740.625 856.438C747.881 847.227 750.354 838.285 750.312 826.688C750.328 825.802 750.344 824.915 750.361 824.002C750.365 817.908 749.96 811.457 747 806C745.019 805.07 745.019 805.07 743 805C741.234 806.766 741.576 809.356 741.351 811.758C741.173 813.533 741.173 813.533 740.992 815.344C740.749 817.841 740.512 820.338 740.281 822.836C738.844 836.96 738.844 836.96 734.187 841.938C731.221 843.379 729.253 843.485 726 843C723.96 840.894 723.077 839.555 722.672 836.633C722.697 835.806 722.723 834.978 722.75 834.125C722.773 832.892 722.773 832.892 722.797 831.633C723 829 723 829 723.497 826.397C724.111 822.251 724.192 818.202 724.246 814.016C724.279 812.258 724.312 810.5 724.345 808.743C724.393 806 724.437 803.258 724.476 800.515C724.857 775.213 724.857 775.213 730.437 767.125C731.034 766.241 731.631 765.357 732.246 764.446C733.355 762.899 734.491 761.37 735.66 759.868C739.226 754.898 738.612 748.806 738 743C733.211 720.357 722.718 698.057 711.673 677.847C696.152 649.41 685.678 618.881 685.937 586.313C685.942 585.218 685.946 584.123 685.951 582.995C685.962 580.33 685.979 577.665 686 575C687.084 576.088 687.084 576.088 688.19 577.198C690.761 579.763 693.351 582.306 695.949 584.844C725.79 614.163 734.561 642.105 742.513 682.533C743.907 689.605 745.318 696.673 746.727 703.742C747.237 706.31 747.742 708.879 748.247 711.449C749.942 720.03 751.749 728.544 754 737C746.448 655.388 746.448 655.388 705.449 588.05C691.092 575.168 682.12 560.676 675 543C674.612 542.045 674.612 542.045 674.216 541.07C658.056 500.754 648.472 461.389 664.109 418.993C667.093 412.094 667.093 412.094 670.652 411.727Z" fill="#A0A0A1"/>
<path id="triceps_left" d="M356 412C360.26 418.651 362.247 424.898 363.688 432.625C363.998 434.221 363.998 434.221 364.315 435.849C364.898 438.896 365.454 441.946 366 445C366.136 445.731 366.271 446.462 366.411 447.215C371.418 474.803 365.4 499.95 355.312 525.634C354.04 528.897 352.802 532.17 351.569 535.448C350.383 538.585 349.177 541.714 347.966 544.842C347.373 546.382 346.786 547.925 346.206 549.471C342.428 559.5 338.378 567.08 331 575C329.643 576.56 328.289 578.122 326.938 579.688C324.097 582.833 321.159 585.843 318.121 588.797C307.205 599.333 307.205 599.333 299 612C298.692 612.599 298.384 613.198 298.066 613.814C279.151 651.168 275.421 697.18 269 738C273.941 720.149 278.04 702.192 281.5 684C293.415 621.61 293.415 621.61 310.559 603.582C312.514 601.514 314.376 599.417 316.23 597.262C320.251 592.643 324.535 588.317 328.875 584C329.646 583.225 330.417 582.451 331.211 581.652C331.943 580.921 332.675 580.191 333.43 579.438C334.092 578.776 334.755 578.115 335.437 577.434C337 576 337 576 338 576C338.453 602.524 338.453 602.524 336 615C335.765 616.195 335.765 616.195 335.526 617.415C330.264 642.76 318.673 667.004 306.984 689.973C302.473 698.841 298.436 707.779 294.782 717.035C294.058 718.853 293.31 720.662 292.559 722.469C287.844 734.064 282.932 747.797 287.945 759.996C289.497 762.944 291.514 765.447 293.574 768.055C298.563 774.861 299.139 782.363 299.281 790.555C299.309 791.784 299.309 791.784 299.337 793.039C299.396 795.651 299.448 798.263 299.5 800.875C299.568 804.31 299.642 807.745 299.719 811.18C299.732 811.959 299.746 812.738 299.76 813.541C299.862 818.104 300.293 822.483 301 827C301.133 829.248 301.218 831.499 301.25 833.75C301.276 834.859 301.302 835.967 301.328 837.109C301 840 301 840 299.664 841.859C296.977 843.701 295.168 843.507 292 843C287.538 839.654 286.065 836.292 285 831C284.345 826.365 283.854 821.718 283.375 817.062C283.241 815.806 283.107 814.55 282.969 813.256C282.64 810.171 282.318 807.086 282 804C280.35 804.33 278.7 804.66 277 805C272.582 820.356 271.848 835.444 279.543 849.898C281.859 853.683 284.239 857.165 287.23 860.449C292.625 866.378 293.837 870.273 293.477 878.312C293 881 293 881 291 883C287.636 883.558 286.192 883.113 283.23 881.375C261.138 864.132 248.872 846.615 240 820C238.623 803.953 240.396 788.287 242.794 772.462C244.172 763.35 245.37 754.419 245.562 745.188C245.781 735.408 246.681 725.777 247.75 716.062C249.138 703.419 250.289 690.77 251.234 678.086C251.287 677.385 251.339 676.684 251.393 675.962C251.87 669.582 252.343 663.2 252.789 656.817C255.387 619.682 260.262 588.705 276.075 554.687C283.591 538.504 285.748 521.888 287.562 504.312C291.011 471.331 291.011 471.331 296.625 460.812C296.971 460.146 297.316 459.479 297.672 458.793C301.031 452.543 305.181 447.203 310 442C310.651 441.269 311.302 440.538 311.973 439.785C321.582 429.546 341.042 410.856 356 412Z" fill="#A0A0A1"/>
<path id="lower_calf_right" d="M589.622 647.704C606.209 653.597 622.86 664.623 631.297 680.43C645.075 710.453 646.93 748.493 651.513 780.886C651.808 782.97 652.105 785.054 652.403 787.138C655.649 809.944 658.412 832.563 658.25 855.625C658.247 856.432 658.244 857.238 658.241 858.069C658.11 887.531 655.188 916.784 650.629 945.875C645.871 976.642 645.879 1006.65 648.813 1037.62C648.895 1038.5 648.977 1039.37 649.062 1040.26C650.51 1055.13 652.985 1069.39 657.438 1083.69C660.65 1094.34 663.197 1105.02 665 1116C665.256 1117.44 665.256 1117.44 665.517 1118.9C669.327 1146.61 664.001 1175.26 660.149 1202.64C659.38 1208.14 658.633 1213.64 657.885 1219.13C657.591 1221.29 657.297 1223.45 657.003 1225.61C656.859 1226.66 656.716 1227.72 656.568 1228.8C656.141 1231.93 655.712 1235.06 655.283 1238.2C650.959 1268.45 650.959 1268.45 649.625 1298.94C649.628 1299.69 649.632 1300.43 649.635 1301.2C649.709 1315.61 650.928 1329.74 653 1344C653.154 1345.16 653.308 1346.31 653.467 1347.51C653.629 1348.66 653.79 1349.82 653.957 1351.02C654.101 1352.07 654.245 1353.13 654.394 1354.21C656.118 1362.14 663.679 1366.38 670.067 1370.59C675.381 1373.95 681.004 1376.78 686.64 1379.55C687.421 1379.94 688.203 1380.33 689.008 1380.74C689.706 1381.08 690.403 1381.42 691.122 1381.77C694.014 1383.66 695.725 1385.81 696.504 1389.18C696.523 1389.93 696.543 1390.67 696.563 1391.44C696.626 1392.55 696.626 1392.55 696.692 1393.68C695.611 1397.3 693.071 1399.05 690 1401C687.129 1402.41 684.176 1403.55 681.188 1404.69C670.189 1409.1 660.296 1414.92 650.367 1421.34C637.583 1429.53 625.524 1430.98 610.438 1427.94C605.657 1426.58 602.979 1424.76 599.988 1420.82C595.022 1411.69 597.573 1396.8 599.5 1387C601.575 1376.33 601.391 1367.95 598.424 1357.54C595.627 1347.16 597.115 1336.68 598.5 1326.19C601.213 1303.98 598.692 1283.21 595.078 1261.26C594.626 1258.5 594.184 1255.75 593.742 1252.99C592.203 1243.5 590.49 1234.1 588.238 1224.75C586.528 1217.51 586.528 1217.51 587 1214C588.234 1212.32 588.234 1212.32 589.965 1210.84C590.596 1210.28 591.227 1209.72 591.878 1209.14C592.558 1208.56 593.237 1207.97 593.938 1207.37C599.72 1202.25 604.6 1197.17 609.168 1190.91C609.773 1190.28 610.377 1189.65 611 1189C615.795 1189 616.439 1190.05 620 1193C624.091 1195.15 627.411 1195.61 632 1195C638.316 1191.9 642.711 1187.46 647 1182C647.66 1181.34 648.32 1180.68 649 1180C648.92 1180.64 648.839 1181.27 648.757 1181.93C648.375 1184.97 648 1188.02 647.625 1191.06C647.499 1192.06 647.373 1193.06 647.242 1194.09C645.863 1205.37 644.947 1216.68 644 1228C643.838 1229.92 643.677 1231.84 643.515 1233.76C642.85 1241.68 642.192 1249.6 641.544 1257.52C640.776 1266.88 639.998 1276.23 639.074 1285.57C637.466 1302.1 636.714 1318.5 636.688 1335.12C636.684 1336.04 636.681 1336.96 636.677 1337.9C636.624 1358.13 636.624 1358.13 640 1378C639.996 1377.22 639.991 1376.43 639.987 1375.62C639.946 1368.11 639.916 1360.6 639.897 1353.09C639.886 1349.23 639.872 1345.37 639.849 1341.51C639.748 1324.12 639.982 1306.93 641.662 1289.6C642.056 1285.41 642.409 1281.21 642.757 1277.01C643.389 1269.36 644.037 1261.71 644.695 1254.06C645.074 1249.65 645.45 1245.25 645.818 1240.84C647.552 1220.1 649.549 1199.54 653 1179C653.189 1177.87 653.377 1176.74 653.571 1175.58C654.276 1171.38 654.983 1167.17 655.715 1162.98C657.667 1151.77 658.187 1140.71 658.185 1129.36C658.188 1127.14 658.206 1124.91 658.225 1122.69C658.26 1113.94 657.68 1105.62 656 1097C655.854 1096.24 655.708 1095.48 655.558 1094.69C653.582 1084.99 650.711 1075.66 647.465 1066.32C644.547 1057.8 642.356 1049.46 640.938 1040.56C640.768 1039.5 640.599 1038.45 640.425 1037.36C639.937 1034.24 639.465 1031.12 639 1028C638.877 1027.2 638.754 1026.41 638.628 1025.59C634.34 996.977 637.178 969.282 642.598 941.116C643.482 936.468 644.298 931.809 645.113 927.148C645.516 924.843 645.927 922.539 646.351 920.237C649.407 903.096 650.388 886.012 650.313 868.625C650.308 867.21 650.308 867.21 650.304 865.766C650.242 851.968 649.96 838.527 647 825C646.731 823.762 646.463 822.523 646.186 821.247C642.769 805.729 638.77 790.521 633.531 775.508C630.177 765.828 628.105 755.986 626.563 745.875C623.849 728.491 617.298 713.857 603 703C585.89 690.994 563.794 685.899 543.16 685.176C540 685 540 685 537 684C537.922 678.26 542.382 674.31 546 670C546.561 669.303 547.122 668.606 547.699 667.887C558.43 654.922 572.383 642.034 589.622 647.704Z" fill="#A0A0A0"/>
<path id="lower_calf_left" d="M452.508 647.07C464.101 653.957 474.085 664.184 482.5 674.625C482.975 675.204 483.45 675.784 483.94 676.381C485.219 678.039 485.219 678.039 487 681C486.612 683.185 486.612 683.185 486 685C485.373 685.034 484.745 685.068 484.099 685.104C457.482 686.668 431.394 691.471 412.106 711.476C403.908 721.301 400.123 731.892 398.313 744.312C396.315 756.795 392.776 768.651 389.026 780.702C383.451 798.622 378.639 816.579 375 835C374.852 835.746 374.703 836.491 374.55 837.26C367.129 876.659 377.01 918.997 384.032 957.833C384.156 958.52 384.28 959.208 384.407 959.917C384.741 961.771 385.078 963.625 385.415 965.478C386.948 974.704 387.282 983.782 387.313 993.125C387.315 993.89 387.318 994.656 387.321 995.445C387.33 1020.85 383.905 1045.55 374.651 1069.28C370.709 1079.82 368.909 1090.94 367 1102C366.822 1102.94 366.644 1103.89 366.46 1104.86C365.933 1108.46 365.765 1112.01 365.692 1115.63C365.676 1116.37 365.661 1117.11 365.646 1117.87C365.316 1137.67 367.166 1156.16 370.831 1175.59C375.623 1201.19 377.244 1227.34 379.301 1253.26C379.976 1261.76 380.698 1270.26 381.437 1278.76C381.624 1280.92 381.807 1283.08 381.99 1285.23C382.509 1291.35 383.039 1297.47 383.629 1303.58C386.007 1329.01 385.245 1354.52 384 1380C391.123 1347.21 387.551 1313.52 384.625 1280.38C384.169 1275.14 383.716 1269.9 383.262 1264.66C383.095 1262.74 383.095 1262.74 382.926 1260.79C382.299 1253.56 381.698 1246.33 381.145 1239.09C381.084 1238.3 381.022 1237.5 380.959 1236.67C380.9 1235.9 380.841 1235.13 380.78 1234.34C379.387 1216.15 377.367 1198.08 375 1180C377.24 1182.2 379.213 1184.49 381.188 1186.94C384.628 1190.85 387.912 1193.6 393 1195C399.275 1195 403.597 1193.01 409 1190C410.331 1189.33 411.663 1188.66 413 1188C413.45 1188.59 413.9 1189.19 414.363 1189.8C421.197 1198.61 428.509 1207.02 438 1213C436.661 1222.27 434.968 1231.44 433.125 1240.63C431.078 1250.97 429.227 1261.32 427.688 1271.75C427.529 1272.82 427.37 1273.9 427.206 1275.01C425.635 1285.99 424.806 1296.78 424.813 1307.88C424.812 1309.6 424.812 1309.6 424.811 1311.37C424.852 1318 425.317 1324.23 426.539 1330.75C428.25 1342.81 427.414 1354.02 423.903 1365.63C421.795 1373.5 422.856 1380.71 424.5 1388.56C425.8 1394.77 426.331 1400.78 426.375 1407.13C426.389 1407.92 426.402 1408.71 426.416 1409.53C426.37 1415.49 425.137 1419.73 420.938 1424.19C411.42 1430.06 399.987 1430.22 389.172 1428.57C379.962 1426.17 371.942 1420.53 364.438 1414.88C358.055 1410.15 351.404 1407.17 343.926 1404.57C342.86 1404.2 342.86 1404.2 341.772 1403.81C340.378 1403.33 338.977 1402.86 337.57 1402.41C332.335 1400.59 330.046 1398.45 327 1394C326.25 1390.5 326.25 1390.5 327 1387C331.551 1381.65 337.514 1379.17 343.726 1376.18C353.199 1371.55 365.053 1365.53 369.075 1355.25C380.502 1315.08 373.584 1269.38 368 1229C367.848 1227.9 367.697 1226.79 367.54 1225.65C366.2 1215.91 364.854 1206.17 363.449 1196.44C357.428 1154.66 357.428 1154.66 357.625 1139.25C357.635 1138.04 357.644 1136.83 357.654 1135.58C357.972 1116.44 361.385 1097.57 367.516 1079.43C371.006 1068.98 372.985 1058.66 374.313 1047.75C374.394 1047.09 374.475 1046.42 374.559 1045.74C379.053 1008.29 377.373 971.998 371.722 934.799C365.84 895.994 363.566 856.071 368 817C368.076 816.324 368.151 815.649 368.229 814.953C371.92 781.956 377.012 749.172 383.19 716.549C383.473 715.052 383.754 713.553 384.032 712.054C388.096 690.244 394.872 671.577 413.936 658.404C424.055 651.733 440.341 641.877 452.508 647.07Z" fill="#A0A0A0"/>
<path id="upper_back_left" d="M428 343L430.5 337.948C435.819 339.257 441.073 340.738 446.312 342.437C447.154 342.702 447.995 342.966 448.861 343.238C460.317 347.091 469.422 354.177 475 365C483.654 385.244 473.952 413.833 468.243 433.769C465.936 441.902 464.205 450.121 462.561 458.411C462.369 459.373 462.178 460.336 461.98 461.328C461.814 462.183 461.648 463.038 461.477 463.919C461 466 461 466 460 468C457.647 467.623 456.344 467.384 454.727 465.58C454.363 464.975 454 464.369 453.625 463.746C453.203 463.064 452.781 462.382 452.347 461.68C451.902 460.94 451.458 460.2 451 459.437C443.222 446.954 434.296 435.387 425 424C424.318 423.156 423.636 422.311 422.934 421.441C418.208 415.617 413.365 409.904 408.469 404.223C403.884 398.892 399.42 393.469 395 388C396.495 384.375 398.543 382.411 401.5 379.875C409.186 373.074 416.346 366.492 422 357.875C422.374 357.313 422.748 356.752 423.133 356.173C425.833 351.869 426.969 347.908 428 343Z" fill="#A0A0A1"/>
<path id="rear_deltoid_left" d="M322.313 341.214C341.417 323.212 365.533 318.355 389.854 327.247C393.894 328.664 398.009 329.825 402.125 331C403.008 331.254 403.891 331.508 404.801 331.77C411.156 333.566 417.546 335.045 424 336.437C426.18 336.915 428.345 337.417 430.5 337.948L428 343C425.236 345.445 423.275 348.036 421.312 351.125C418.122 355.982 414.518 360.21 410.508 364.411C409.409 365.569 408.32 366.736 407.238 367.909C393.594 382.641 378.751 392.455 360.77 401.148C345.089 408.765 331.283 418.778 318 430C317.427 430.482 316.855 430.965 316.265 431.462C312.502 434.632 308.748 437.812 305 441C297.473 433.473 298.581 414.512 298.562 404.687C298.8 380.625 304.786 358.444 322.313 341.214Z" fill="#A0A0A1"/>
<path id="rear_deltoid_right" d="M639.859 325.348C658.929 319.038 678.105 323.054 694 335C711.255 349.083 721.903 366.713 725 389C726.064 406.359 724.735 423.044 721 440C716.874 440 715.119 437.8 712.188 435.188C711.013 434.17 709.838 433.154 708.66 432.141C708.054 431.618 707.449 431.095 706.825 430.557C690.708 416.808 673.399 406.403 654.733 396.458C633.46 385.106 615.704 370.017 602 350C600.981 348.582 599.961 347.165 598.938 345.75C598.298 344.842 597.659 343.935 597 343L595 337.491C597.582 336.875 600.168 336.275 602.755 335.678C615.32 332.769 627.627 329.464 639.859 325.348Z" fill="#A0A0A1"/>
<path id="upper_back_right" d="M595 337.491L597 343C597.687 358.805 615.019 373.915 626 384C627.485 384.99 627.485 384.99 629 386C627.5 389.448 625.496 391.824 622.938 394.562C618.839 399.029 614.99 403.642 611.18 408.355C609.199 410.758 607.158 413.073 605.062 415.375C600.534 420.422 596.446 425.78 592.368 431.19C590.96 433.053 589.539 434.906 588.117 436.758C582.014 444.754 576.277 452.893 570.92 461.413C570.45 462.143 569.98 462.873 569.496 463.625C569.085 464.277 568.675 464.93 568.252 465.602C567.632 466.294 567.632 466.294 567 467C566.01 467 565.02 467 564 467C563.72 465.714 563.441 464.427 563.152 463.102C560.837 452.614 558.298 442.228 555.438 431.875C541.321 380.547 541.321 380.547 551.254 361.609C559.89 347.396 577.379 342 592.703 338.044C593.468 337.858 594.234 337.674 595 337.491Z" fill="#A0A0A1"/>
<path id="lat_right" d="M635.377 392.246C637.964 392.99 640.098 393.912 642.468 395.18C643.696 395.831 643.696 395.831 644.949 396.496C645.791 396.951 646.632 397.406 647.5 397.875C648.341 398.322 649.183 398.77 650.05 399.231C654.096 401.39 658.098 403.586 662 406C660.948 410.828 659.855 415.638 658.668 420.434C655.975 431.33 653.521 442.209 651.5 453.25C646.516 479.816 637.486 505.609 624.828 529.535C623.282 532.464 621.838 535.421 620.416 538.41C610.416 559.18 597.823 580.212 584.23 598.828C581.901 601.818 581.901 601.818 581 605C578.103 603.7 576.148 602.365 574.011 600.024C573.474 599.44 572.936 598.856 572.382 598.254C571.823 597.634 571.263 597.014 570.687 596.375C569.812 595.419 569.812 595.419 568.92 594.444C565.498 590.694 562.137 586.895 558.808 583.063C547.159 569.778 534.538 557.435 522 545C524.725 540.032 527.713 535.517 531.125 531C541.652 516.832 550.813 501.944 559.664 486.684C567.013 474.067 574.545 461.829 583.371 450.17C585.107 447.857 586.804 445.518 588.496 443.172C595.575 433.379 602.929 423.994 611 415C611.465 414.479 611.93 413.957 612.409 413.42C615.557 409.9 618.766 406.442 622 403C622.484 402.471 622.968 401.942 623.467 401.398C624.921 399.813 626.395 398.248 627.875 396.688C628.738 395.763 629.602 394.839 630.492 393.887C633 392 633 392 635.377 392.246Z" fill="#A0A0A1"/>
<path id="lat_left" d="M390.039 392.673C392.146 394.098 393.852 395.609 395.645 397.414C396.322 398.093 397 398.773 397.697 399.473C398.744 400.538 398.744 400.538 399.813 401.625C400.499 402.312 401.186 402.999 401.893 403.707C406.458 408.311 410.785 413.074 415 418C415.467 418.54 415.935 419.08 416.416 419.637C423.239 427.537 429.755 435.636 436 444C436.498 444.661 436.995 445.322 437.508 446.003C445.596 456.785 452.752 467.911 459.555 479.54C466.309 491.034 473.39 502.286 480.87 513.32C481.921 514.882 482.952 516.458 483.981 518.035C489.604 526.649 495.772 534.82 502 543C500.707 545.847 499.354 547.89 497.13 550.081C496.552 550.655 495.975 551.23 495.379 551.822C494.755 552.432 494.131 553.043 493.488 553.672C492.519 554.634 492.519 554.634 491.53 555.615C489.462 557.665 487.388 559.708 485.313 561.75C483.256 563.779 481.201 565.809 479.149 567.842C477.874 569.105 476.597 570.365 475.316 571.622C470.989 575.902 466.969 580.388 463 585C461.504 586.67 460.005 588.338 458.5 590C455.108 593.751 451.78 597.549 448.508 601.406C447 603 447 603 444 605C408.027 555.727 381.877 500.464 369.797 440.773C366.952 426.312 366.952 426.312 362.813 412.187C362.469 411.191 362.124 410.195 361.77 409.168C361.516 408.452 361.262 407.737 361 407C366.793 403.284 372.697 399.836 378.75 396.562C379.587 396.091 380.423 395.62 381.285 395.135C382.094 394.7 382.902 394.265 383.735 393.816C384.459 393.419 385.183 393.021 385.929 392.611C388 392 388 392 390.039 392.673Z" fill="#A0A0A1"/>
<path id="inner_hamstring_left" d="M509 790C509.33 790 509.66 790 510 790C510.232 800.361 509.536 810.615 508.75 820.938C508.65 822.26 508.65 822.26 508.547 823.609C505.742 860.041 499.585 895.736 488.543 930.599C484.152 944.803 481.916 959.041 479.938 973.75C475.278 1007.78 468.772 1039.44 455 1071C454.67 1071 454.34 1071 454 1071C453.985 1070.34 453.971 1069.68 453.956 1069.01C453.562 1053.01 452.756 1037.42 448.691 1021.89C441.287 993.32 446.098 966.283 452.139 937.94C459.038 905.426 461.848 872.675 462.562 839.5C462.606 837.598 462.649 835.695 462.693 833.793C462.799 829.195 462.901 824.598 463 820C464.017 819.671 465.034 819.342 466.081 819.003C467.436 818.559 468.79 818.116 470.145 817.672C470.812 817.456 471.48 817.241 472.168 817.019C486.233 812.39 501.528 803.076 509 790Z" fill="#A0A0A0"/>
<path id="inner_hamstring_right" d="M514 790C514.924 791.166 514.924 791.166 515.867 792.355C527.789 807.138 543.907 813.988 561 821C561.024 821.892 561.024 821.892 561.049 822.801C562.095 860.571 563.692 897.851 571 935C571.281 936.444 571.562 937.887 571.843 939.331C571.994 940.109 572.145 940.887 572.301 941.688C572.617 943.313 572.933 944.937 573.249 946.561C574.034 950.598 574.825 954.634 575.626 958.668C575.775 959.423 575.924 960.178 576.078 960.956C576.357 962.368 576.638 963.78 576.922 965.192C581.607 988.999 577.642 1010.89 572.756 1034.27C571.697 1039.49 570.884 1044.51 570.684 1049.84C570.621 1051.43 570.621 1051.43 570.557 1053.06C570.517 1054.15 570.478 1055.25 570.438 1056.38C570.373 1058.05 570.373 1058.05 570.307 1059.76C570.201 1062.51 570.099 1065.25 570 1068C549.512 1041.58 547.42 998.427 543.145 966.641C540.367 946.649 535.577 927.24 529.938 907.871C522.124 880.742 518.562 852.762 515.75 824.75C515.661 823.879 515.572 823.007 515.48 822.11C514.392 811.364 513.743 800.804 514 790Z" fill="#A0A0A0"/>
<path id="side_glute_right" d="M589.622 647.704C606.209 653.597 622.86 664.623 631.297 680.43C645.075 710.453 646.93 748.493 651.513 780.886C651.808 782.97 652.105 785.054 652.403 787.138C655.649 809.944 658.412 832.563 658.25 855.625C658.247 856.432 658.244 857.238 658.241 858.069C658.11 887.531 655.188 916.784 650.629 945.875C645.871 976.642 645.879 1006.65 648.813 1037.62C648.895 1038.5 648.977 1039.37 649.062 1040.26C650.373 1053.72 652.031 1067.13 656.547 1079.95C657.068 1082.31 656.758 1083.73 656 1086C652.609 1083.74 652.42 1083.08 651.281 1079.34C650.989 1078.4 650.696 1077.46 650.395 1076.49C650.1 1075.5 649.804 1074.52 649.5 1073.5C649.057 1072.07 649.057 1072.07 648.606 1070.6C648.013 1068.67 647.427 1066.74 646.848 1064.81C646.308 1063.02 645.755 1061.23 645.186 1059.45C643.219 1053.22 641.966 1047.01 640.938 1040.56C640.768 1039.5 640.599 1038.45 640.425 1037.36C639.937 1034.24 639.465 1031.12 639 1028C638.877 1027.2 638.754 1026.41 638.628 1025.59C634.34 996.977 637.178 969.282 642.598 941.116C643.482 936.468 644.298 931.809 645.113 927.148C645.516 924.843 645.927 922.539 646.351 920.237C649.407 903.096 650.388 886.012 650.313 868.625C650.308 867.21 650.308 867.21 650.304 865.766C650.242 851.968 649.96 838.527 647 825C646.731 823.762 646.463 822.523 646.186 821.247C642.769 805.729 638.77 790.521 633.531 775.508C630.177 765.828 628.105 755.986 626.563 745.875C623.849 728.491 617.298 713.857 603 703C585.89 690.994 563.794 685.899 543.16 685.176C540 685 540 685 537 684C537.922 678.26 542.382 674.31 546 670C546.561 669.303 547.122 668.606 547.699 667.887C558.43 654.922 572.383 642.034 589.622 647.704Z" fill="#9F9FA0"/>
<path id="side_glute_left" d="M452.508 647.07C464.101 653.957 474.085 664.184 482.5 674.625C483.213 675.494 483.213 675.494 483.94 676.381C485.219 678.039 485.219 678.039 487 681C486.612 683.185 486.612 683.185 486 685C485.373 685.034 484.745 685.068 484.099 685.104C457.482 686.668 431.394 691.471 412.106 711.476C403.908 721.301 400.123 731.892 398.313 744.312C396.315 756.795 392.776 768.651 389.026 780.702C383.451 798.622 378.639 816.579 375 835C374.852 835.746 374.703 836.491 374.55 837.26C367.129 876.659 377.01 918.997 384.032 957.833C384.156 958.52 384.28 959.208 384.407 959.917C384.741 961.771 385.078 963.625 385.415 965.478C386.948 974.704 387.282 983.782 387.313 993.125C387.315 993.89 387.318 994.656 387.321 995.445C387.33 1020.92 383.853 1045.72 374.653 1069.54C371.168 1078.79 369.063 1088.36 367 1098C366.01 1097.67 365.02 1097.34 364 1097C364.452 1091.07 365.521 1085.94 367.375 1080.3C370.925 1069.46 373.03 1058.79 374.375 1047.5C374.53 1046.2 374.685 1044.91 374.845 1043.57C378.936 1006.82 377.265 971.286 371.722 934.799C365.84 895.994 363.566 856.071 368 817C368.076 816.324 368.151 815.649 368.229 814.953C371.92 781.956 377.012 749.172 383.19 716.549C383.473 715.052 383.754 713.553 384.032 712.054C388.096 690.244 394.872 671.577 413.936 658.404C424.055 651.733 440.341 641.877 452.508 647.07ZM363 1097C364 1101 364 1101 364 1101L363 1097Z" fill="#9F9FA0"/>
<path id="erector_right" d="M518 548C522.764 550.49 526.157 553.889 529.875 557.688C530.497 558.316 531.119 558.944 531.76 559.592C535.479 563.374 539.067 567.229 542.496 571.277C544.091 573.104 545.77 574.801 547.5 576.5C550.467 579.421 553.201 582.477 555.914 585.633C558.055 588.062 560.253 590.428 562.466 592.792C578.371 609.81 578.371 609.81 579.375 619.688C579.007 628.278 576.889 637.182 570.645 643.336C567.345 646.285 563.802 648.912 560.273 651.578C538.874 667.808 525.657 690.666 515 715C514.67 715 514.34 715 514 715C513.832 686.696 514.086 658.398 514.406 630.096C514.437 627.287 514.467 624.477 514.497 621.667C514.686 604.033 514.888 586.397 515.356 568.768C515.392 567.389 515.424 566.011 515.454 564.632C515.495 562.756 515.55 560.879 515.606 559.003C515.634 557.957 515.661 556.912 515.69 555.835C516.011 552.903 516.775 550.669 518 548Z" fill="#A0A0A0"/>
<path id="erector_left" d="M507 548C508.842 551.152 509.256 553.466 509.278 557.098C509.29 558.129 509.301 559.159 509.312 560.221C509.314 561.347 509.317 562.473 509.319 563.633C509.329 564.824 509.339 566.015 509.349 567.243C509.375 570.517 509.392 573.792 509.405 577.067C509.42 580.531 509.447 583.995 509.473 587.458C509.514 593.31 509.549 599.161 509.578 605.012C509.619 613.129 509.672 621.245 509.727 629.362C509.924 658.241 510.076 687.12 510 716C508.13 713.195 507.038 710.746 505.812 707.625C499.293 691.829 489.943 678.051 479 665C478.337 664.179 477.675 663.358 476.992 662.512C472.217 656.847 467.075 652.59 460.96 648.486C455.663 644.92 451.218 641.45 448.75 635.438C448.435 634.694 448.121 633.95 447.797 633.184C445.205 626.082 444.254 616.938 447.375 609.875C450.693 604.278 455.558 599.699 460 595C461.091 593.757 462.176 592.508 463.25 591.25C467.29 586.598 471.526 582.129 475.741 577.636C479.084 574.069 482.384 570.474 485.625 566.812C489.099 562.928 492.7 559.193 496.375 555.5C496.888 554.983 497.4 554.466 497.928 553.933C503.886 548 503.886 548 507 548Z" fill="#A0A0A1"/>
<path id="external_oblique_left" d="M397 534C399.774 537.383 401.615 541.083 403.5 545C409.912 558.05 416.962 570.759 424.5 583.19C427.872 588.759 431.173 594.367 434.438 600C434.958 600.885 435.479 601.77 436.015 602.681C440.208 609.954 442.15 616.655 443.125 625C443.211 625.673 443.298 626.346 443.387 627.039C443.917 631.401 444.08 635.618 444 640C442.151 640.636 442.151 640.636 440.266 641.285C423.34 647.232 409.494 654.883 397 668C396.01 668.99 396.01 668.99 395 670C394.897 662.428 394.828 654.856 394.78 647.283C394.76 644.717 394.733 642.151 394.698 639.585C394.491 623.974 395.201 609.38 398.568 594.115C399.522 589.444 399.844 584.754 400 580C400.04 579.015 400.08 578.03 400.121 577.016C400.413 562.681 398.881 548.198 397 534Z" fill="#A0A0A0"/>
<path id="external_oblique_right" d="M626 535C627.261 538.784 626.674 541.169 626.082 545.113C624.881 553.825 624.648 562.404 624.688 571.188C624.688 571.945 624.688 572.702 624.689 573.482C624.712 585.097 625.392 596.403 627.611 607.833C627.739 608.548 627.868 609.263 628 610C628.179 610.994 628.357 611.989 628.541 613.013C629.273 618.265 629.123 623.548 629.098 628.84C629.096 629.962 629.095 631.084 629.093 632.24C629.088 635.806 629.075 639.372 629.062 642.938C629.057 645.363 629.053 647.788 629.049 650.213C629.038 656.142 629.021 662.071 629 668C628.529 667.596 628.057 667.192 627.572 666.775C626.637 665.974 626.637 665.974 625.683 665.156C624.76 664.364 624.76 664.364 623.817 663.556C611.804 653.271 599.171 645.422 583.688 641.473C582 641 582 641 581 640C580.712 634.997 580.832 630.005 581 625C581.048 623.389 581.048 623.389 581.098 621.746C582.058 611.153 587.597 602.886 593 594C593.946 592.427 594.891 590.855 595.836 589.281C597.303 586.842 598.771 584.403 600.244 581.968C609.458 566.687 618.33 551.12 626 535Z" fill="#A0A0A0"/>
<path id="decorative_line_1" d="M729 554C729.99 554 730.98 554 732 554C734.057 559.472 735.008 565.014 736 570.75C736.332 572.641 736.666 574.531 737 576.422C737.163 577.348 737.325 578.275 737.493 579.229C737.992 581.957 738.549 584.668 739.117 587.383C740.061 592.039 740.153 596.256 740 601C732.191 594.522 730.732 577.306 729.777 567.776C729.409 563.189 729.175 558.599 729 554Z" fill="#060A13"/>
<path id="decorative_line_2" d="M292 554C292.99 554 293.98 554 295 554C295.33 561.316 294.44 567.783 292.688 574.875C292.458 575.834 292.229 576.794 291.993 577.782C291.54 579.672 291.082 581.56 290.62 583.447C290.091 585.623 289.589 587.802 289.105 589.988C288.864 591.044 288.623 592.1 288.375 593.188C288.077 594.508 288.077 594.508 287.773 595.855C286.909 598.252 285.83 599.278 284 601C283.412 591.063 285.199 582.031 287.438 572.438C287.767 570.976 288.096 569.515 288.424 568.053C290.753 557.742 290.753 557.742 292 554Z" fill="#060A13"/>
<path id="decorative_line_3" d="M511.051 350.691C510.976 351.23 510.901 351.769 510.824 352.325C500.398 351.062 491.271 349.301 481.321 346.948C479.975 346.633 478.628 346.319 477.241 345.996C474.588 345.376 471.939 344.754 469.291 344.13C466.237 343.413 463.177 342.71 460.106 342.015C458.623 341.675 457.14 341.336 455.612 340.986C453.758 340.563 453.758 340.563 451.866 340.132C448.523 339.188 447.146 338.398 444.837 337.062C459.008 338.702 471.714 341.457 485.183 344.569C487.236 345.036 489.289 345.504 491.342 345.971C505.825 349.273 505.825 349.273 511.051 350.691Z" fill="#060A13"/>
<path id="decorative_line_4" d="M514.613 350.691C514.688 351.23 514.763 351.769 514.84 352.325C525.266 351.062 534.393 349.301 544.343 346.948C545.689 346.633 547.036 346.319 548.423 345.996C551.076 345.376 553.725 344.754 556.373 344.13C559.427 343.413 562.487 342.71 565.558 342.015C567.041 341.675 568.524 341.336 570.052 340.986C571.906 340.563 571.906 340.563 573.798 340.132C577.141 339.188 578.518 338.398 580.828 337.062C566.656 338.702 553.95 341.457 540.481 344.569C538.428 345.036 536.376 345.504 534.322 345.971C519.839 349.273 519.839 349.273 514.613 350.691Z" fill="#060A13"/>
</g>
<defs>
<clipPath id="clip0_1_2">
<rect width="1024" height="1536" fill="white"/>
</clipPath>
</defs>
</svg>