<svg width="393" height="584" viewBox="0 0 393 584" fill="none" xmlns="http://www.w3.org/2000/svg">
<g clip-path="url(#clip0_1_2)">
<path id="forearm1" d="M115.904 168.812C116.158 168.812 116.411 168.812 116.672 168.812C117.348 169.73 117.348 169.73 118.087 170.951C118.334 171.348 118.581 171.745 118.835 172.154C119.462 173.616 119.381 174.136 118.975 175.656C118.839 176.229 118.705 176.801 118.571 177.375C118.455 177.857 118.455 177.857 118.336 178.348C116.695 185.192 115.329 192.181 115.137 199.229C115.121 199.667 115.106 200.104 115.09 200.555C114.988 205.923 115.875 210.294 117.679 215.317C121.999 227.63 116.882 241.293 113.105 253.29C112.159 256.301 111.285 259.329 110.435 262.367C110.309 262.815 110.182 263.262 110.052 263.724C108.486 268.855 108.486 268.855 107.845 274.13C107.958 273.717 108.07 273.304 108.187 272.878C109.47 268.27 110.925 263.726 112.426 259.183C117.667 243.592 117.667 243.592 120.654 227.483C121.035 224.129 122.056 222.329 124.731 220.141C125.191 219.677 125.648 219.21 126.098 218.738C128.093 216.795 130.222 215.024 132.407 213.297C132.446 215.229 132.473 217.161 132.492 219.094C132.499 219.748 132.51 220.402 132.523 221.056C132.647 227.236 131.715 232.854 129.505 238.652C129.376 238.996 129.247 239.34 129.114 239.695C127.088 244.96 124.525 249.998 121.829 254.953C118.853 260.429 116.407 266.154 114.009 271.896C113.833 272.315 113.656 272.734 113.474 273.165C112.036 276.656 110.89 280.246 110.531 284.016C110.493 284.267 110.455 284.518 110.416 284.776C110.192 287.212 111.126 288.69 112.48 290.677C115.06 295.304 115.004 299.847 115.041 304.999C115.052 305.747 115.063 306.496 115.075 307.245C115.103 309.049 115.117 310.853 115.127 312.657C115.136 313.639 115.158 314.619 115.182 315.601C115.193 316.184 115.204 316.767 115.215 317.351C115.228 317.744 115.228 317.744 115.243 318.145C115.263 319.687 115.077 320.535 113.985 321.656C112.931 321.625 112.257 321.439 111.453 320.752C109.24 318.344 108.914 315.719 108.636 312.579C108.395 310.133 108.02 307.979 107.077 305.688C105.375 307.373 105.381 310.294 105.374 312.579C105.382 317.536 107.315 321.454 110.147 325.458C113.298 329.963 113.298 329.963 113.122 332.587C112.834 333.823 112.834 333.823 112.066 334.583C109.186 334.705 107.299 332.878 105.158 331.161C104.832 330.906 104.505 330.65 104.169 330.386C98.4565 325.635 94.0011 317.866 92.4932 310.63C92.1059 304.765 92.9161 298.872 93.4937 293.041C93.5977 291.981 93.6994 290.919 93.8007 289.858C94.4102 283.482 95.0807 277.114 95.8114 270.75C97.3527 257.378 97.3527 257.378 98.4599 243.966C99.2325 232.357 100.385 221.798 105.782 211.324C108.972 205.13 109.949 199.26 110.507 192.377C111.186 184.238 112.659 176.36 115.904 168.812ZM107.077 275.271C107.461 276.411 107.461 276.411 107.461 276.411L107.077 275.271Z" fill="#9C9C9C"/>
<path id="forearm2" d="M276.328 168.812C276.581 168.812 276.835 168.812 277.096 168.812C278.774 173.191 280.055 177.517 280.933 182.12C280.987 182.395 281.041 182.67 281.097 182.953C281.849 186.879 282.199 190.774 282.445 194.762C282.911 201.726 284.779 206.694 287.876 212.94C293.445 224.175 294.136 236.607 295.019 248.927C295.376 253.91 295.846 258.869 296.406 263.833C296.662 266.103 296.909 268.375 297.156 270.646C297.209 271.13 297.261 271.614 297.316 272.112C297.941 277.873 298.541 283.636 299.125 289.401C299.245 290.583 299.367 291.766 299.49 292.949C300.859 306.109 300.867 316.229 292.063 326.979C291.857 327.245 291.651 327.511 291.438 327.786C289.304 330.4 285.298 334.237 281.845 334.726C280.933 334.583 280.933 334.583 280.238 334.18C279.517 333.013 279.502 332.079 279.782 330.781C280.741 328.341 282.037 326.221 283.644 324.151C286.917 319.871 287.791 315.122 287.458 309.87C287.09 307.412 287.09 307.412 285.923 305.307C285.059 307.628 284.652 309.87 284.411 312.318C283.737 318.745 283.737 318.745 281.341 320.991C280.166 321.656 280.166 321.656 279.087 321.633C278.247 321.276 278.247 321.276 277.863 320.516C277.821 319.843 277.802 319.169 277.795 318.496C277.788 317.861 277.788 317.861 277.78 317.214C277.778 316.753 277.775 316.293 277.772 315.818C277.769 315.343 277.766 314.868 277.762 314.379C277.757 313.369 277.753 312.36 277.75 311.35C277.747 310.325 277.738 309.299 277.726 308.274C277.638 300.305 277.902 294.223 282.469 287.437C283.643 280.92 279.57 273.425 277.096 267.667C276.961 267.352 276.826 267.038 276.687 266.714C274.072 260.661 271.16 254.727 268.173 248.846C267.926 248.358 267.681 247.869 267.435 247.381C266.985 246.486 266.525 245.601 266.056 244.716C262.924 238.546 260.51 231.299 260.555 224.362C260.556 224.044 260.556 223.727 260.557 223.399C260.559 222.393 260.564 221.385 260.569 220.378C260.571 219.693 260.572 219.007 260.574 218.321C260.578 216.647 260.585 214.972 260.593 213.297C260.886 213.591 261.179 213.884 261.481 214.187C262.565 215.25 263.711 216.211 264.887 217.17C266.518 218.53 268.131 219.904 269.684 221.353C270.137 221.772 270.137 221.772 270.6 222.201C271.99 224.047 272.139 226.264 272.407 228.498C273.742 239.242 277.288 249.749 280.664 260.002C281.123 261.399 281.575 262.798 282.028 264.197C283.762 269.551 283.762 269.551 285.539 274.891C284.522 270.011 283.501 265.153 281.917 260.419C279.674 253.705 277.957 246.848 276.248 239.985C276.096 239.375 275.943 238.766 275.79 238.156C274.045 231.212 272.369 224.075 274.793 217.099C275.037 216.381 275.28 215.663 275.523 214.945C275.763 214.239 276.01 213.535 276.257 212.83C277.435 209.111 277.633 205.623 277.623 201.748C277.623 201.455 277.623 201.163 277.623 200.861C277.601 192.97 276.311 185.42 274.429 177.765C274.293 177.189 274.159 176.613 274.025 176.036C273.917 175.571 273.81 175.106 273.698 174.627C273.626 173.029 274.066 172.275 274.913 170.927C275.157 170.528 275.401 170.128 275.652 169.717C275.875 169.419 276.098 169.12 276.328 168.812Z" fill="#9C9C9C"/>
<path id="obliques" d="M143.537 165.771C143.791 165.771 144.044 165.771 144.305 165.771C144.89 166.552 145.439 167.338 145.984 168.147C149.752 173.537 154.365 177.99 161.074 179.276C163.477 179.621 165.915 179.551 168.34 179.553C168.623 179.554 168.907 179.554 169.199 179.554C178.014 179.542 187.98 178.756 194.653 172.306C195.278 171.648 195.708 171.142 196.116 170.333C196.37 170.333 196.623 170.333 196.884 170.333C197.252 170.91 197.252 170.91 197.628 171.498C200.886 176.095 208.22 178.109 213.579 179.055C217.171 179.591 220.819 179.59 224.445 179.625C224.731 179.629 225.017 179.634 225.312 179.639C230.943 179.716 235.777 178.958 240.252 175.276C240.558 175.039 240.863 174.802 241.179 174.557C243.585 172.574 245.383 170.274 247.186 167.76C247.371 167.503 247.557 167.246 247.748 166.981C247.912 166.748 248.077 166.515 248.246 166.275C248.395 166.108 248.543 165.942 248.695 165.771C248.949 165.771 249.202 165.771 249.463 165.771C249.542 168.919 249.336 172.022 249.034 175.154C248.96 175.935 248.891 176.716 248.822 177.498C248.353 182.605 247.341 187.522 245.841 192.433C245.723 192.828 245.605 193.222 245.484 193.629C245.004 195.23 244.518 196.829 243.999 198.418C241.068 207.409 240.863 216.593 241.979 225.915C243.667 240.194 243.667 240.194 240.383 245.032C238.773 246.945 236.836 248.44 234.877 249.984C231.639 252.67 228.756 255.728 226.137 259.005C225.384 259.939 224.607 260.845 223.815 261.746C220.898 265.086 218.295 268.649 215.69 272.229C215.512 272.473 215.334 272.717 215.151 272.968C213.484 275.259 211.841 277.566 210.199 279.876C209.42 280.971 208.639 282.064 207.858 283.158C207.441 283.743 207.025 284.329 206.611 284.915C200.316 293.822 200.316 293.822 197.268 295.042C195.462 295.112 194.37 294.639 192.998 293.544C189.004 289.776 186.107 284.756 183.023 280.261C180.802 277.029 178.491 273.863 176.159 270.708C175.865 270.308 175.571 269.906 175.267 269.494C171.786 264.815 168.03 260.343 164.025 256.097C163.239 255.258 162.488 254.402 161.743 253.527C159.937 251.464 157.835 249.693 155.726 247.942C152.706 245.419 151.054 243.095 150.445 239.151C150.151 235.269 150.515 231.524 151.021 227.673C152.051 219.67 152.289 211.313 150.445 203.411C150.376 203.11 150.306 202.808 150.234 202.498C149.51 199.461 148.675 196.497 147.567 193.574C145.529 188.036 144.542 182.458 143.993 176.607C143.969 176.35 143.944 176.094 143.919 175.83C143.609 172.47 143.475 169.144 143.537 165.771Z" fill="#9C9C9C"/>
<path id="absvector" d="M193.229 185.855C193.816 186.323 194.395 186.801 194.962 187.294C195.786 187.967 195.786 187.967 197.267 187.823C198.082 187.296 198.082 187.296 198.875 186.587C202.335 183.843 205.112 183.266 209.549 183.641C214.195 184.243 218.337 185.257 221.436 188.929C223.17 191.549 224.405 194.463 225.668 197.328C229.798 195.345 232.911 192.715 235.849 189.24C236.393 188.607 236.964 188.022 237.565 187.443C235.868 191.924 232.448 195.408 228.81 198.445C227.088 199.973 226.264 201.171 225.631 203.359C225.356 204.304 225.05 205.179 224.686 206.089C224.579 206.357 224.472 206.626 224.362 206.902C224.15 207.43 223.937 207.958 223.722 208.484C223.122 210.021 222.868 211.272 222.981 212.917C227.448 212.323 232.255 207.667 234.957 204.24C235.403 203.604 235.839 202.96 236.26 202.307C236.764 201.561 237.286 200.978 237.949 200.37C236.115 206.304 230.982 211.317 225.668 214.438C224.908 214.712 224.141 214.971 223.365 215.198C223.374 215.52 223.383 215.843 223.392 216.175C223.471 221.234 222.754 225.748 221.146 230.523C220.438 232.649 219.851 234.53 219.815 236.775C219.543 241.066 218.414 245.213 217.414 249.384C217.214 250.219 217.018 251.055 216.821 251.892C215.206 258.77 213.588 265.604 211.084 272.229C210.985 272.494 210.886 272.758 210.784 273.031C210.261 274.418 209.723 275.798 209.165 277.172C208.75 275.921 208.822 275.123 209.153 273.857C209.244 273.5 209.336 273.143 209.43 272.775C209.532 272.389 209.635 272.003 209.74 271.605C209.845 271.201 209.949 270.797 210.056 270.381C210.28 269.513 210.505 268.647 210.731 267.78C211.32 265.528 211.895 263.274 212.471 261.019C212.584 260.574 212.698 260.13 212.815 259.671C213.73 256.075 214.587 252.471 215.378 248.846C215.48 248.381 215.582 247.917 215.687 247.438C216.895 242.178 216.895 242.178 217.297 236.822C217.294 236.484 217.292 236.146 217.289 235.797C217.276 234.951 217.276 234.951 216.841 234.208C212.941 233.516 208.773 233.783 204.823 233.804C204.199 233.806 203.575 233.808 202.95 233.81C201.44 233.814 199.929 233.82 198.419 233.828C197.767 235.121 197.899 236.596 197.843 238.021C197.82 238.569 197.82 238.569 197.796 239.129C197.558 244.937 197.409 250.748 197.244 256.558C197.188 258.495 197.133 260.432 197.075 262.369C197.068 262.634 197.06 262.899 197.052 263.172C196.921 267.588 196.739 272 196.5 276.412C196.373 276.412 196.246 276.412 196.116 276.412C196.103 275.728 196.103 275.728 196.089 275.03C196.007 270.718 195.922 266.406 195.836 262.093C195.792 259.877 195.748 257.66 195.705 255.443C195.664 253.301 195.622 251.159 195.579 249.016C195.562 248.202 195.546 247.388 195.531 246.574C195.998 239.836 195.998 239.836 194.581 233.828C193.676 233.79 192.783 233.775 191.878 233.778C191.601 233.777 191.325 233.777 191.041 233.777C190.451 233.776 189.862 233.777 189.272 233.778C188.39 233.781 187.507 233.779 186.624 233.776C183.117 233.775 179.654 233.904 176.159 234.208C175.124 237.285 175.887 240.649 176.591 243.728C176.677 244.119 176.763 244.51 176.851 244.913C177.127 246.162 177.41 247.409 177.694 248.656C177.787 249.066 177.879 249.475 177.974 249.897C178.54 252.406 179.117 254.912 179.701 257.416C179.999 258.691 180.293 259.967 180.587 261.243C181.517 265.246 182.462 269.231 183.654 273.166C184.06 274.539 184.314 275.739 184.219 277.172C178.767 269.07 177.214 256.59 175.032 247.183C174.958 246.872 174.885 246.56 174.809 246.239C173.941 242.542 173.274 238.905 172.981 235.116C172.828 233.3 172.462 231.782 171.77 230.074C169.941 225.513 169.322 220.088 169.635 215.198C169.296 215.1 168.958 215.003 168.609 214.902C162.454 212.662 158.08 206.857 154.955 201.439C154.86 201.212 154.765 200.984 154.667 200.75C154.793 200.499 154.92 200.248 155.051 199.99C155.282 200.335 155.282 200.335 155.517 200.688C159.04 205.831 163.261 210.028 168.867 212.917C169.247 212.917 169.627 212.917 170.018 212.917C169.868 210.611 169.453 208.83 168.504 206.724C168.099 205.693 168.099 205.693 167.887 204.567C167.082 200.584 164.633 198.746 161.664 196.143C159.636 194.35 158.072 192.361 156.586 190.104C156.359 189.764 156.133 189.425 155.899 189.075C155.669 188.644 155.669 188.644 155.434 188.203C155.561 187.952 155.688 187.701 155.818 187.443C156.028 187.709 156.237 187.976 156.453 188.251C159.644 192.228 162.817 194.906 167.332 197.328C167.546 196.905 167.759 196.481 167.98 196.045C168.122 195.766 168.266 195.487 168.413 195.2C168.71 194.602 168.994 193.997 169.261 193.385C170.713 190.186 172.995 186.93 176.255 185.352C181.764 183.392 188.223 182.202 193.229 185.855ZM238.333 198.849C238.459 199.225 238.586 199.602 238.717 199.99C238.337 200.178 238.337 200.178 237.949 200.37C238.076 199.868 238.202 199.366 238.333 198.849Z" fill="#060A13"/>
<path id="lowerleg2" d="M240.252 247.896C240.632 248.084 240.632 248.084 241.02 248.276C241.254 248.99 241.254 248.99 241.452 249.94C241.527 250.297 241.603 250.654 241.682 251.023C241.801 251.612 241.801 251.612 241.923 252.213C242.009 252.621 242.094 253.029 242.182 253.449C242.462 254.789 242.736 256.131 243.011 257.473C243.201 258.396 243.392 259.32 243.583 260.244C245.133 267.77 246.605 275.307 247.928 282.875C248.005 283.313 248.082 283.751 248.162 284.202C249.101 289.582 249.737 294.983 250.303 300.412C250.335 300.725 250.368 301.037 250.401 301.359C250.496 302.272 250.588 303.185 250.679 304.098C250.706 304.36 250.732 304.621 250.76 304.891C251.232 309.736 251.446 314.579 251.487 319.446C251.489 319.709 251.492 319.972 251.494 320.242C251.512 322.234 251.52 324.226 251.526 326.219C251.527 326.512 251.528 326.805 251.529 327.108C251.548 334.952 251.395 342.722 250.518 350.528C250.459 351.057 250.459 351.057 250.399 351.597C249.734 357.383 248.988 363.307 247.504 368.948C247.23 370.045 247.062 370.935 247.058 372.052C247.057 372.366 247.055 372.679 247.054 373.003C247.057 373.342 247.06 373.681 247.064 374.03C247.067 374.399 247.07 374.769 247.072 375.15C247.252 388.626 248.703 401.527 252.16 414.576C257.425 434.475 254.115 454.875 250.533 474.806C248.781 484.569 247.229 494.264 247.514 504.22C247.546 505.358 247.563 506.496 247.58 507.634C247.714 513.837 248.829 517.721 252.533 522.786C252.731 523.059 252.928 523.332 253.131 523.613C255.525 526.918 257.962 530.158 260.649 533.235C266.187 539.589 266.187 539.589 266.494 542.32C266.288 544.286 265.609 545.322 264.078 546.588C260.02 549.477 255.521 549.853 250.662 549.876C250.259 549.884 249.856 549.892 249.44 549.9C245.853 549.918 243.261 549.266 240.588 546.789C238.284 544.197 237.111 540.822 235.873 537.64C234.904 535.789 233.483 534.968 231.641 534.074C229.679 533.029 228.205 531.615 227.203 529.63C227.154 528.714 227.13 527.814 227.131 526.897C227.131 526.627 227.131 526.357 227.131 526.078C227.154 523.726 227.449 521.472 227.798 519.145C228.061 517.16 228.216 515.147 227.779 513.179C227.526 511.81 227.516 510.462 227.515 509.075C227.51 508.814 227.506 508.552 227.501 508.283C227.496 506.633 227.671 505.092 227.969 503.467C228.383 501.153 228.472 498.922 228.451 496.576C228.448 496.165 228.446 495.755 228.444 495.333C228.367 489.079 227.637 482.916 226.436 476.781C226.323 476.203 226.323 476.203 226.208 475.613C224.51 467.044 222.082 458.773 219.261 450.507C217.698 445.923 216.783 441.734 216.776 436.889C216.775 436.532 216.774 436.174 216.773 435.806C216.771 435.051 216.77 434.295 216.77 433.54C216.769 432.411 216.762 431.282 216.755 430.154C216.741 425.373 217.017 420.692 217.608 415.948C217.645 415.654 217.682 415.361 217.719 415.059C217.81 414.341 217.901 413.624 217.992 412.906C224.276 418.039 225.956 434.995 227.775 442.861C227.977 443.729 228.18 444.596 228.384 445.463C232.046 461.083 233.051 476.264 233.368 492.262C233.408 494.21 233.45 496.158 233.492 498.106C233.574 501.897 233.652 505.688 233.728 509.479C233.96 505.661 234.172 501.853 234.189 498.027C234.194 497.425 234.194 497.425 234.198 496.811C234.246 487.538 234.133 478.382 232.96 469.177C232.916 468.832 232.873 468.487 232.827 468.132C230.568 450.496 227.981 432.111 220.725 415.696C216.309 405.696 213.71 394.958 211.875 384.224C211.832 383.97 211.788 383.717 211.743 383.455C211.621 382.739 211.503 382.021 211.385 381.303C211.318 380.89 211.25 380.476 211.18 380.05C211.084 379.068 211.084 379.068 211.468 378.307C211.651 378.584 211.833 378.86 212.021 379.145C214.438 382.584 217.606 385.91 221.446 387.812C221.777 388.796 221.906 389.498 221.982 390.514C222.583 397.834 223.816 405.41 229.122 411.005C230.546 412.203 231.864 412.594 233.728 412.526C234.923 412.238 236.04 411.833 237.182 411.385C238.233 416.515 238.598 421.727 239.033 426.936C239.096 427.678 239.161 428.421 239.227 429.163C240.738 446.756 240 464.629 239.374 482.255C239.131 489.18 239.053 496.087 239.101 503.016C239.254 501.189 239.403 499.363 239.55 497.537C239.6 496.924 239.651 496.311 239.702 495.699C240.842 482.133 241.147 468.58 241.12 454.972C241.115 452.778 241.118 450.584 241.122 448.389C241.137 439.451 241.143 430.554 240.252 421.651C240.223 421.351 240.194 421.051 240.163 420.743C240.008 419.181 239.827 417.623 239.628 416.067C239.043 411.427 239.072 407.372 239.757 402.736C241.145 393.445 241.145 393.445 239.999 384.205C239.577 381.119 240.637 378.758 242.051 376.074C243.923 372.343 245.306 368.64 246.393 364.62C246.479 364.3 246.566 363.981 246.655 363.652C252.074 343.214 254.978 314.48 245.241 295.042C245.052 294.664 244.864 294.287 244.669 293.898C242.242 289.093 239.673 284.378 236.956 279.728C230.26 268.223 230.26 268.223 228.355 261.964C228.235 261.581 228.116 261.199 227.993 260.805C227.961 259.209 228.75 258.441 229.794 257.33C229.985 257.117 230.176 256.904 230.374 256.685C230.971 256.028 231.579 255.382 232.192 254.74C232.379 254.542 232.566 254.345 232.759 254.142C237.362 249.327 237.362 249.327 240.252 247.896Z" fill="#9C9C9C"/>
<path id="lowerleg1" d="M151.981 247.516C153.489 248.219 154.681 249.178 155.938 250.249C156.162 250.438 156.385 250.627 156.614 250.822C158.215 252.19 159.765 253.571 161.191 255.12C161.502 255.44 161.813 255.761 162.133 256.091C164.481 258.668 164.481 258.668 164.86 260.131C164.804 261.082 164.585 261.824 164.262 262.724C164.042 263.351 164.042 263.351 163.818 263.991C162.436 267.623 160.695 271.07 158.889 274.51C158.74 274.795 158.592 275.079 158.439 275.372C156.878 278.356 155.293 281.324 153.629 284.252C146.969 295.975 142.718 306.751 142.705 320.357C142.704 320.847 142.702 321.338 142.701 321.843C142.699 322.879 142.698 323.914 142.699 324.95C142.699 325.994 142.696 327.038 142.691 328.083C142.66 334.224 142.781 340.27 143.537 346.37C143.593 346.863 143.649 347.355 143.707 347.863C144.925 358.255 146.778 369.183 152.315 378.285C153.507 380.439 153.268 382.702 152.748 385.032C151.769 390.24 152.351 395.403 153.132 400.597C154.062 406.841 154.029 412.291 153.221 418.537C151.839 429.37 151.859 440.201 151.88 451.103C151.885 453.323 151.882 455.542 151.878 457.761C151.858 469.151 151.961 480.525 153.053 491.872C153.159 493.048 153.213 494.224 153.253 495.404C153.269 495.854 153.285 496.303 153.302 496.767C153.317 497.221 153.332 497.676 153.348 498.144C153.364 498.615 153.381 499.086 153.398 499.571C153.438 500.719 153.477 501.867 153.516 503.016C153.89 500.54 153.959 498.128 153.947 495.627C153.946 495.199 153.946 494.771 153.944 494.329C153.919 489.557 153.759 484.79 153.599 480.021C152.924 459.919 152.607 439.792 154.667 419.75C154.718 419.251 154.718 419.251 154.769 418.742C155.367 412.919 155.367 412.919 155.818 411.385C156.19 411.511 156.563 411.636 156.946 411.766C158.86 412.286 160.858 412.71 162.695 411.769C164.656 410.251 165.786 408.202 166.948 406.062C167.118 405.778 167.289 405.493 167.464 405.199C169.434 401.708 170.247 397.652 170.618 393.698C171.142 388.322 171.142 388.322 172.344 386.835C173.328 386.181 174.332 385.676 175.392 385.151C177.705 383.372 179.568 381.492 181.089 379.01C181.532 378.307 181.532 378.307 182.3 377.547C181.162 385.055 179.875 392.451 177.621 399.716C177.285 400.822 176.972 401.934 176.662 403.047C175.637 406.696 174.574 410.225 172.973 413.667C170.224 419.592 168.36 425.772 166.804 432.094C166.598 432.923 166.384 433.748 166.163 434.572C163.146 445.986 161.307 457.659 159.944 469.367C159.912 469.639 159.88 469.91 159.847 470.191C159.756 470.981 159.666 471.772 159.578 472.563C159.528 473.011 159.478 473.46 159.426 473.922C158.953 478.888 158.835 483.821 158.851 488.805C158.852 489.462 158.853 490.118 158.853 490.774C158.854 492.479 158.858 494.184 158.862 495.889C158.866 497.638 158.868 499.387 158.87 501.135C158.874 504.55 158.881 507.965 158.889 511.38C159.142 511.38 159.395 511.38 159.656 511.38C159.655 511.125 159.653 510.87 159.651 510.607C159.571 498.055 159.562 485.542 160.374 473.008C160.45 471.813 160.513 470.618 160.578 469.422C161.642 451.632 165.967 428.272 174.624 412.526C174.877 412.526 175.131 412.526 175.392 412.526C177.276 427.876 176.701 442.246 171.618 456.866C168.972 464.485 167.047 472.242 165.797 480.203C165.739 480.546 165.682 480.888 165.623 481.241C164.8 486.233 164.543 491.148 164.55 496.195C164.55 496.619 164.55 496.619 164.55 497.051C164.537 500.315 164.537 500.315 164.842 503.559C165.054 505.094 165.064 506.561 165.04 508.107C165.035 508.72 165.03 509.334 165.026 509.947C165.016 510.9 165.006 511.852 164.993 512.805C164.952 516.035 164.923 519.114 165.618 522.288C165.895 523.648 165.913 524.938 165.917 526.327C165.923 526.828 165.93 527.328 165.936 527.844C165.691 530.318 164.637 531.744 162.766 533.27C161.868 533.873 160.959 534.282 159.968 534.715C157.916 535.689 157.335 536.684 156.586 538.755C153.365 546.859 153.365 546.859 149.294 549.021C146.92 549.908 144.641 549.913 142.122 549.9C141.506 549.898 141.506 549.898 140.877 549.895C136.132 549.828 131.337 549.001 127.802 545.599C126.806 544.033 126.329 542.876 126.65 541.036C127.816 538.516 129.517 536.558 131.408 534.548C133.559 532.147 135.46 529.541 137.397 526.969C137.73 526.529 137.73 526.529 138.07 526.081C143.604 518.773 145.179 513.639 145.456 504.536C145.47 504.135 145.483 503.734 145.497 503.321C145.798 493.377 144.269 483.799 142.524 474.04C140.203 460.983 138.471 448.089 138.404 434.816C138.401 434.479 138.398 434.142 138.395 433.795C138.339 425.761 139.85 418.343 141.874 410.597C143.502 404.332 144.641 398.074 145.12 391.615C145.15 391.233 145.18 390.852 145.211 390.458C145.297 389.323 145.378 388.188 145.456 387.052C145.479 386.725 145.502 386.397 145.525 386.06C145.672 383.857 145.766 381.655 145.84 379.448C145.855 379.085 145.87 378.722 145.886 378.348C146.069 373.567 145.815 369.207 144.742 364.542C143.809 360.311 143.34 356.041 142.866 351.74C142.825 351.378 142.784 351.016 142.742 350.642C141.817 342.389 141.528 334.212 141.522 325.91C141.522 325.444 141.521 324.978 141.521 324.498C141.523 316.401 141.893 308.412 142.77 300.365C142.819 299.902 142.868 299.44 142.919 298.964C143.774 291.059 145.035 283.215 146.439 275.389C146.503 275.034 146.567 274.677 146.632 274.311C148.24 265.344 150.1 256.429 151.981 247.516Z" fill="#9C9C9C"/>
<path id="thighs2" d="M227.587 265.766C228.422 267.007 229.071 268.301 229.734 269.636C231.201 272.568 232.723 275.467 234.275 278.354C234.688 279.122 235.099 279.892 235.51 280.661C236.829 283.122 238.173 285.564 239.579 287.978C243.875 295.376 247.266 303.252 248.311 311.771C248.37 312.218 248.37 312.218 248.43 312.675C251.011 333.269 250.291 362.439 238.333 380.208C237.929 380.085 237.929 380.085 237.517 379.959C234.385 379.048 232.11 378.475 229.05 379.923C226.205 381.47 224.515 383.35 222.598 385.911C218.267 384.406 214.692 380.892 212.471 376.993C206.666 364.602 207.015 349.287 209.165 336.104C209.212 335.802 209.26 335.499 209.309 335.188C210.828 325.788 213.803 316.481 216.799 307.457C221.333 293.771 225.652 280.079 227.587 265.766Z" fill="#9C9C9C"/>
<path id="thighs1" d="M165.029 265.766C165.156 265.766 165.283 265.766 165.413 265.766C165.45 266.01 165.486 266.254 165.524 266.506C167.226 277.779 170.205 288.435 173.677 299.282C191.249 354.243 191.249 354.243 180.64 377.122C178.423 380.735 175.492 383.744 171.554 385.531C170.435 385.502 170.109 385.244 169.332 384.446C169.099 384.153 168.867 383.86 168.627 383.559C166.799 381.428 164.644 379.954 161.959 379.068C160.339 378.989 159.205 378.963 157.665 379.471C156.421 379.883 155.903 379.849 154.667 379.448C150.32 374.603 148.604 365.905 147.159 359.701C147.075 359.338 147.075 359.338 146.988 358.968C145.467 352.331 144.916 345.563 144.369 338.791C144.311 338.075 144.248 337.358 144.184 336.643C142.206 313.568 148.47 296.655 159.527 276.821C161.521 273.212 163.292 269.501 165.029 265.766Z" fill="#9C9C9C"/>
<path id="head" d="M212.627 37.3525C213.578 38.1692 214.45 39.0079 215.305 39.9219C215.529 40.1592 215.752 40.3964 215.982 40.6405C220.611 46.1391 220.936 54.3828 220.678 61.2136C221.044 61.1992 221.41 61.1851 221.786 61.1706C222.981 61.2136 222.981 61.2136 223.677 61.9025C225.348 64.953 224.617 69.0162 223.749 72.2396C222.062 77.2116 222.062 77.2116 219.911 78.7032C218.891 78.7446 218.891 78.7446 217.992 78.7032C217.968 79.1895 217.945 79.6754 217.92 80.1765C217.221 86.7682 214.887 91.9466 209.991 96.5403C209.208 97.292 208.517 98.071 207.821 98.9017C205.241 101.86 202.245 104.068 198.221 104.369C193.183 104.511 189.902 103.557 186.018 100.232C184.653 98.9432 183.372 97.6037 182.163 96.1703C181.747 95.6837 181.314 95.2107 180.865 94.7537C177.189 90.9505 174.973 85.5675 174.936 80.2951C174.96 79.8951 174.983 79.4955 175.008 79.0834C174.667 79.0051 174.327 78.9264 173.976 78.8458C171.523 77.8371 170.6 75.8497 169.594 73.5479C168.733 71.2192 168.344 69.163 168.339 66.7027C168.33 66.4255 168.32 66.1483 168.311 65.8628C168.3 63.9161 168.632 62.6976 170.018 61.2136C171.074 61.071 171.074 61.071 171.937 61.2136C171.959 60.5437 171.959 60.5437 171.981 59.8604C172.292 51.7567 173.221 43.7541 179.397 37.7833C188.743 30.1962 203.046 30.3046 212.627 37.3525Z" fill="#9C9C9C"/>
<path id="trapezoid" d="M177.311 93.1511C177.564 93.1511 177.817 93.1511 178.078 93.1511C178.681 93.8837 179.245 94.6206 179.805 95.3848C183.687 100.507 187.961 104.695 194.581 105.698C198.824 106.197 203.143 104.869 206.479 102.276C209.396 99.7017 212.05 96.8855 214.402 93.7955C214.573 93.583 214.745 93.3701 214.922 93.1511C215.049 93.1511 215.175 93.1511 215.306 93.1511C215.321 93.9016 215.321 93.9016 215.336 94.6673C215.36 100.67 215.36 100.67 218.047 105.849C219.225 106.912 220.43 107.612 221.845 108.304C222.233 108.5 222.233 108.5 222.63 108.7C223.18 108.977 223.732 109.253 224.285 109.527C225.149 109.956 226.01 110.389 226.871 110.822C228.004 111.394 229.138 111.963 230.273 112.532C243.128 118.974 243.128 118.974 245.241 121.286C243.72 121.789 242.217 121.813 240.628 121.9C239.902 121.942 239.177 121.985 238.451 122.028C238.068 122.05 237.685 122.073 237.29 122.096C231.298 122.449 225.311 122.848 219.339 123.451C218.74 123.512 218.14 123.571 217.541 123.629C207.979 124.546 207.979 124.546 199.954 129.271C199.701 129.271 199.447 129.271 199.187 129.271C199.032 129.577 199.032 129.577 198.875 129.889C198.547 130.538 198.201 131.179 197.843 131.814C197.144 133.344 196.814 134.851 196.5 136.495C196.373 136.495 196.247 136.495 196.116 136.495C196.079 136.22 196.041 135.944 196.002 135.66C195.47 132.252 194.339 130.21 191.649 128.002C183.735 122.473 171.207 123.086 161.914 122.51C161.514 122.485 161.113 122.461 160.701 122.435C158.696 122.311 156.691 122.192 154.685 122.081C153.945 122.037 153.206 121.994 152.466 121.95C151.952 121.924 151.952 121.924 151.429 121.897C151.113 121.878 150.798 121.859 150.473 121.84C150.197 121.824 149.922 121.809 149.639 121.794C148.91 121.667 148.91 121.667 147.759 120.906C152.355 117.725 157.33 115.279 162.315 112.761C164.22 111.792 166.104 110.788 167.984 109.772C168.894 109.303 169.783 108.881 170.722 108.48C173.811 107.151 173.811 107.151 175.871 104.605C176.262 103.627 176.262 103.627 176.543 102.656C176.634 102.395 176.726 102.135 176.82 101.866C177.634 99.0671 177.375 96.0342 177.311 93.1511Z" fill="#9C9C9C"/>
<path id="trapezoidvector1" d="M188.057 109.5C188.779 110.574 189.134 111.415 189.544 112.628C189.676 113.02 189.809 113.413 189.946 113.817C190.082 114.228 190.218 114.638 190.359 115.061C190.564 115.663 190.564 115.663 190.773 116.277C192.916 122.67 192.916 122.67 192.278 124.708C191.799 123.303 191.321 121.896 190.845 120.49C190.604 119.779 190.362 119.069 190.119 118.359C187.91 111.827 187.91 111.827 188.057 109.5Z" fill="#060A13"/>
<path id="trapezoidvector2" d="M204.176 110.26C204.599 111.525 204.512 112.323 204.161 113.599C204.065 113.949 203.97 114.298 203.872 114.659C203.766 115.026 203.661 115.394 203.552 115.773C203.447 116.148 203.342 116.522 203.234 116.908C202.459 119.604 201.558 122.174 200.338 124.708C199.82 123.682 200.065 123.237 200.353 122.134C200.496 121.583 200.496 121.583 200.642 121.021C200.747 120.631 200.853 120.24 200.962 119.837C201.066 119.442 201.171 119.048 201.28 118.641C202.063 115.762 202.977 112.999 204.176 110.26Z" fill="#060A13"/>
<path id="delts1" d="M149.267 123.18C152.026 123.918 154.899 124.082 157.737 124.328C158.192 124.371 158.646 124.413 159.113 124.457C160.062 124.545 161.01 124.63 161.959 124.709C160.844 125.87 159.671 126.811 158.361 127.75C152.044 132.413 147.273 137.414 143.153 144.099C142.951 144.394 142.749 144.689 142.542 144.993C141.787 146.402 141.42 147.859 141.019 149.398C140.781 150.285 140.543 151.17 140.295 152.054C140.118 152.713 139.976 153.381 139.843 154.05C139.019 155.729 137.615 156.505 136.077 157.525C135.445 157.961 134.813 158.398 134.182 158.836C133.876 159.047 133.57 159.258 133.254 159.476C128.383 162.88 124.23 166.958 120.893 171.854C116.872 168.574 115.747 163.056 115.137 158.167C114.308 148.633 117.148 139.626 122.812 131.932C123 131.67 123.187 131.407 123.381 131.136C127.045 126.452 133.277 123.353 139.052 122.166C142.752 121.855 145.688 122.15 149.267 123.18Z" fill="#9C9C9C"/>
<path id="delts2" d="M262.503 125.481C268.7 129.479 273.032 135.034 275.68 141.841C275.774 142.079 275.867 142.316 275.963 142.561C278.571 149.647 278.818 159.839 275.707 166.775C274.699 168.721 273.74 170.363 272.106 171.854C271.975 171.673 271.843 171.492 271.707 171.306C267.912 166.278 263.679 162.238 258.498 158.63C258.07 158.328 258.07 158.328 257.633 158.02C257.029 157.598 256.417 157.185 255.801 156.78C253.905 155.465 252.943 154.521 252.472 152.251C252.395 151.804 252.395 151.804 252.317 151.347C250.996 145.368 248.168 140.667 244.09 136.115C243.816 135.808 243.816 135.808 243.537 135.496C240.156 131.785 236.188 128.895 232.094 126C231.425 125.469 231.425 125.469 231.041 124.708C231.28 124.695 231.519 124.682 231.765 124.669C236.064 124.417 240.214 124.086 244.377 122.95C250.812 121.222 256.73 122.148 262.503 125.481Z" fill="#9C9C9C"/>
<path id="biceps2" d="M253.301 157.406C257.874 159.462 261.885 163.234 265.582 166.531C265.887 166.801 266.193 167.072 266.507 167.349C270.689 171.253 272.714 176.194 273.857 181.668C273.938 182.05 274.018 182.432 274.101 182.826C274.338 183.984 274.567 185.142 274.793 186.302C274.858 186.625 274.923 186.948 274.99 187.281C276.572 195.369 277.298 205.436 274.409 213.297C274.298 213.601 274.187 213.906 274.073 214.22C273.334 216.212 272.546 218.181 271.723 220.141C264.614 216.986 259.119 209.784 256.353 202.854C253.599 195.589 250.985 187.801 250.907 179.981C250.903 179.67 250.899 179.36 250.896 179.04C250.886 178.039 250.881 177.038 250.878 176.036C250.876 175.527 250.876 175.527 250.874 175.006C250.859 162.755 250.859 162.755 253.301 157.406Z" fill="#9C9C9C"/>
<path id="biceps1" d="M140.083 157.406C140.333 158.602 140.58 159.798 140.827 160.995C140.932 161.495 140.932 161.495 141.039 162.007C142.859 170.89 142.904 180.972 140.467 189.724C140.292 190.41 140.119 191.097 139.947 191.784C138.76 196.403 137.312 200.905 135.477 205.312C135.32 205.692 135.32 205.692 135.159 206.079C133.081 210.927 129.821 213.822 125.74 217.054C124.343 218.169 123 219.339 121.661 220.521C121.01 219.554 120.655 218.84 120.271 217.766C120.159 217.45 120.045 217.134 119.929 216.808C119.812 216.472 119.695 216.137 119.574 215.792C119.454 215.449 119.334 215.107 119.211 214.753C117.972 211.168 116.872 207.595 116.672 203.792C116.642 203.238 116.642 203.238 116.61 202.673C116.333 192.152 117.566 176.81 125.117 168.683C127.882 165.817 130.866 163.281 134.074 160.917C134.702 160.454 135.324 159.984 135.945 159.514C138.777 157.406 138.777 157.406 140.083 157.406Z" fill="#9C9C9C"/>
<path id="adductors2" d="M225.668 262.724C225.921 262.724 226.175 262.724 226.436 262.724C227.814 265.455 226.349 269.35 225.668 272.111C225.547 272.609 225.427 273.109 225.306 273.608C224.426 277.231 223.489 280.841 222.526 284.443C222.403 284.905 222.28 285.365 222.153 285.841C221.599 287.883 221.015 289.901 220.323 291.902C219.678 293.77 219.136 295.653 218.616 297.558C217.645 301.09 216.496 304.551 215.306 308.016C211.551 319.003 208.267 329.865 206.862 341.427C206.822 341.736 206.781 342.045 206.74 342.364C206.4 345.232 206.436 348.096 206.455 350.98C206.457 351.494 206.458 352.008 206.46 352.522C206.464 353.766 206.471 355.011 206.479 356.255C206.352 356.255 206.225 356.255 206.095 356.255C201.981 338.47 201.981 338.47 200.722 331.161C200.653 330.765 200.585 330.369 200.514 329.96C199.185 322.069 198.558 314.126 198.086 306.146C198.039 305.37 197.986 304.594 197.932 303.818C197.851 302.596 197.793 301.375 197.747 300.151C197.723 299.814 197.698 299.478 197.673 299.132C197.657 298.163 197.694 297.472 198.035 296.563C198.821 295.776 199.647 295.186 200.569 294.563C202.03 293.513 203.012 292.166 204.08 290.741C204.308 290.443 204.536 290.147 204.77 289.84C206.751 287.244 208.675 284.605 210.586 281.959C212.572 279.212 214.603 276.498 216.633 273.783C217.151 273.088 217.668 272.392 218.183 271.695C220.493 268.594 222.912 265.454 225.668 262.724Z" fill="#9C9B9C"/>
<path id="adductors1" d="M166.565 262.724C168.112 263.313 168.995 264.388 170.019 265.623C170.202 265.841 170.385 266.059 170.574 266.284C175.048 271.667 179.091 277.413 183.165 283.095C185.221 285.954 187.312 288.779 189.52 291.525C189.713 291.769 189.906 292.014 190.105 292.266C191.163 293.561 192.138 294.463 193.562 295.358C194.441 295.99 194.887 296.327 195.227 297.356C195.315 298.368 195.289 299.327 195.229 300.341C195.211 300.92 195.211 300.92 195.193 301.512C195.14 302.906 195.056 304.296 194.965 305.688C194.948 305.967 194.93 306.247 194.912 306.535C193.891 322.954 191.063 338.736 187.289 354.734C187.163 354.734 187.036 354.734 186.905 354.734C186.9 354.514 186.894 354.293 186.889 354.066C186.408 336.801 182.19 321.384 176.787 305.088C173.844 296.205 171.157 287.268 168.699 278.241C168.577 277.795 168.455 277.348 168.329 276.888C165.241 265.346 165.241 265.346 166.565 262.724Z" fill="#9B9B9B"/>
<path id="lateral2" d="M240.252 247.896C240.505 248.021 240.759 248.147 241.02 248.276C241.254 248.99 241.254 248.99 241.452 249.94C241.565 250.476 241.565 250.476 241.682 251.023C241.801 251.612 241.801 251.612 241.923 252.213C242.009 252.621 242.094 253.029 242.182 253.449C242.462 254.789 242.736 256.131 243.011 257.472C243.201 258.396 243.392 259.32 243.583 260.244C245.133 267.77 246.604 275.307 247.928 282.875C248.005 283.313 248.082 283.751 248.162 284.202C249.101 289.582 249.737 294.983 250.303 300.412C250.335 300.725 250.368 301.037 250.401 301.359C250.496 302.272 250.588 303.185 250.679 304.098C250.706 304.36 250.732 304.621 250.76 304.891C251.232 309.736 251.446 314.579 251.487 319.446C251.489 319.709 251.492 319.972 251.494 320.242C251.512 322.235 251.52 324.226 251.526 326.219C251.527 326.658 251.527 326.658 251.528 327.107C251.55 335.002 251.383 342.815 250.495 350.671C250.453 351.033 250.412 351.395 250.37 351.769C249.965 355.256 249.459 358.727 248.871 362.188C248.826 362.457 248.782 362.726 248.736 363.002C248.507 364.281 248.284 365.041 247.544 366.141C247.544 365.388 247.544 364.635 247.544 363.859C247.417 363.859 247.291 363.859 247.16 363.859C247.375 361.299 247.758 358.82 248.264 356.303C249.845 347.999 250.47 339.601 250.614 331.161C250.623 330.685 250.631 330.209 250.64 329.718C250.815 318.016 250.599 305.738 245.241 295.042C245.052 294.664 244.864 294.287 244.669 293.898C242.242 289.093 239.672 284.378 236.956 279.728C230.26 268.223 230.26 268.223 228.355 261.964C228.235 261.581 228.116 261.199 227.993 260.805C227.961 259.209 228.75 258.441 229.794 257.33C229.985 257.117 230.176 256.904 230.374 256.685C230.971 256.028 231.579 255.382 232.192 254.74C232.473 254.444 232.473 254.444 232.759 254.142C237.362 249.327 237.362 249.327 240.252 247.896Z" fill="#9B9B9C"/>
<path id="lateral1" d="M151.981 247.516C153.489 248.219 154.681 249.178 155.938 250.249C156.162 250.438 156.385 250.627 156.614 250.822C158.215 252.19 159.765 253.571 161.191 255.12C161.502 255.44 161.813 255.761 162.133 256.091C164.481 258.668 164.481 258.668 164.86 260.131C164.804 261.082 164.585 261.824 164.262 262.724C164.042 263.351 164.042 263.351 163.818 263.991C162.436 267.623 160.695 271.07 158.889 274.51C158.74 274.795 158.592 275.079 158.439 275.372C156.878 278.356 155.293 281.324 153.629 284.252C146.969 295.975 142.718 306.751 142.705 320.357C142.704 320.847 142.702 321.338 142.701 321.843C142.699 322.879 142.698 323.914 142.699 324.95C142.699 325.994 142.696 327.038 142.691 328.083C142.66 334.219 142.75 340.277 143.537 346.37C143.572 346.641 143.606 346.912 143.642 347.191C143.86 348.885 144.102 350.574 144.353 352.263C144.491 353.201 144.628 354.14 144.763 355.079C144.823 355.48 144.882 355.881 144.944 356.295C145.062 357.308 145.097 358.278 145.072 359.297C144.692 359.171 144.312 359.046 143.921 358.917C142.43 347.853 141.53 337.083 141.522 325.91C141.522 325.444 141.521 324.978 141.521 324.498C141.523 316.401 141.893 308.412 142.77 300.365C142.819 299.902 142.868 299.44 142.919 298.964C143.774 291.059 145.035 283.215 146.439 275.389C146.503 275.034 146.567 274.677 146.632 274.311C148.24 265.344 150.1 256.429 151.981 247.516Z" fill="#9B9B9B"/>
<path id="tibia2" d="M236.93 381.694C238.082 382.447 238.396 383.512 238.717 384.771C238.795 385.041 238.872 385.311 238.952 385.589C240.1 390.237 239.472 394.864 238.789 399.528C238.726 399.963 238.662 400.398 238.597 400.847C237.455 408.176 237.455 408.176 234.733 410.222C233.445 411.056 232.584 411.155 231.041 411.005C226.565 408.063 225.268 401.046 224.133 396.177C223.465 392.313 223.219 388.634 225.284 385.151C228.187 381.358 232.386 379.765 236.93 381.694Z" fill="#9C9C9C"/>
<path id="tibia1" d="M165.31 382.518C166.896 383.852 168.747 386.067 168.935 388.202C169.049 392.803 168.974 396.768 167.332 401.12C167.212 401.484 167.093 401.849 166.969 402.225C164.681 409.006 164.681 409.006 161.959 410.625C160.396 410.826 159.489 410.722 158.049 410.078C154.483 406.86 154.084 400.394 153.815 395.909C153.763 394.437 153.739 392.969 153.731 391.496C153.728 391.031 153.724 390.567 153.72 390.089C153.749 387.119 153.797 384.143 155.986 381.919C159.077 380.127 162.417 380.627 165.31 382.518Z" fill="#9C9B9C"/>
<path id="chest1" d="M171.17 125.089C171.582 125.119 171.995 125.149 172.42 125.18C187.673 126.366 187.673 126.366 192.189 131.126C194.259 133.669 195.144 136.289 195.108 139.543C195.109 139.831 195.111 140.119 195.112 140.416C195.115 141.358 195.11 142.3 195.104 143.242C195.104 143.903 195.104 144.564 195.105 145.225C195.105 146.606 195.101 147.988 195.094 149.369C195.085 151.132 195.085 152.896 195.088 154.659C195.089 156.023 195.086 157.386 195.083 158.75C195.081 159.4 195.081 160.05 195.081 160.7C195.083 169.371 195.083 169.371 192.95 171.593C192.734 171.826 192.519 172.06 192.296 172.301C189.781 174.522 187.306 175.126 184.051 175.894C183.564 176.01 183.077 176.126 182.575 176.246C177.438 177.448 172.682 177.998 167.404 178.056C166.964 178.063 166.524 178.07 166.071 178.077C159.03 178.069 154.199 174.647 149.294 169.953C145.444 165.873 141.766 160.497 141.403 154.721C142.11 149.818 143.986 145.96 146.608 141.818C146.943 141.28 146.943 141.28 147.285 140.731C150.874 135.445 155.999 131.057 161.192 127.37C161.471 127.127 161.75 126.885 162.037 126.634C164.745 124.418 167.87 124.833 171.17 125.089Z" fill="#9C9C9C"/>
<path id="chest2" d="M223.572 124.854C227.405 124.42 229.458 125.531 232.48 127.869C233.817 128.942 235.121 130.047 236.414 131.172C236.662 131.382 236.91 131.593 237.165 131.809C243.277 137.001 250.253 144.724 251.14 153.037C251.205 156.543 250.64 159.203 249.079 162.349C248.921 162.672 248.764 162.995 248.601 163.328C246.964 166.316 244.565 168.695 242.171 171.094C241.853 171.418 241.536 171.742 241.208 172.075C235.597 177.46 229.248 178.188 221.745 178.083C215.187 177.859 205.377 176.675 200.404 171.948C197.466 168.246 197.91 163.46 197.906 158.975C197.904 158.36 197.901 157.745 197.899 157.13C197.894 155.848 197.892 154.566 197.893 153.284C197.893 151.652 197.882 150.019 197.869 148.387C197.861 147.12 197.859 145.852 197.86 144.584C197.859 143.983 197.855 143.381 197.849 142.78C197.804 137.755 198.418 133.837 202.065 130.094C205.303 127.317 209.332 126.573 213.458 126.015C213.997 125.942 213.997 125.942 214.547 125.866C219.135 125.25 219.135 125.25 221.096 125.157C222.259 125.106 222.259 125.106 223.572 124.854Z" fill="#9C9C9C"/>
<path id="abs2" d="M217.32 188.061C220.297 190.607 223.062 193.34 223.441 197.379C223.668 201.241 223.806 205.276 221.537 208.58C220.17 209.896 218.563 209.715 216.752 209.72C216.285 209.711 215.817 209.703 215.336 209.694C214.853 209.692 214.372 209.69 213.875 209.688C212.858 209.683 211.841 209.674 210.825 209.659C209.519 209.64 208.214 209.63 206.908 209.624C204.752 209.615 202.596 209.599 200.44 209.568C200.058 209.563 199.676 209.558 199.283 209.553C198.419 209.495 198.419 209.495 198.035 209.115C197.989 208.53 197.97 207.943 197.961 207.356C197.955 206.982 197.949 206.607 197.942 206.222C197.925 204.504 197.91 202.786 197.901 201.068C197.894 200.162 197.884 199.255 197.869 198.349C197.848 197.044 197.84 195.74 197.834 194.435C197.826 194.03 197.817 193.625 197.808 193.208C197.816 190.388 197.816 190.388 198.938 188.935C199.274 188.694 199.609 188.452 199.954 188.203C200.5 187.791 200.5 187.791 201.057 187.372C206.022 184.519 212.431 185.639 217.32 188.061Z" fill="#9C9C9C"/>
<path id="abs1" d="M193.43 188.227C194.317 189.078 194.922 189.716 195.06 190.961C195.059 191.294 195.058 191.629 195.058 191.973C195.06 192.542 195.06 192.542 195.062 193.122C195.057 193.735 195.057 193.735 195.053 194.361C195.053 194.78 195.053 195.2 195.053 195.632C195.052 196.518 195.049 197.405 195.044 198.291C195.037 199.654 195.036 201.017 195.036 202.379C195.034 203.239 195.032 204.099 195.029 204.959C195.029 205.369 195.029 205.78 195.028 206.202C195.025 206.579 195.023 206.956 195.02 207.345C195.019 207.678 195.018 208.011 195.016 208.355C194.965 209.115 194.965 209.115 194.581 209.495C193.883 209.531 193.183 209.541 192.483 209.539C191.811 209.539 191.811 209.539 191.125 209.538C189.07 209.525 187.016 209.509 184.962 209.486C183.877 209.475 182.792 209.47 181.706 209.47C180.146 209.471 178.587 209.453 177.027 209.434C176.541 209.436 176.055 209.438 175.554 209.441C172.193 209.376 172.193 209.376 170.881 208.032C169.293 204.055 168.708 198.93 170.234 194.809C172.097 191.113 174.87 188.085 178.847 186.645C183.935 185.316 188.998 185.208 193.43 188.227Z" fill="#9C9C9C"/>
<path id="abs3" d="M176.106 211.341C176.688 211.337 176.688 211.337 177.282 211.333C177.702 211.333 178.123 211.332 178.556 211.332C178.987 211.331 179.418 211.33 179.861 211.328C180.774 211.326 181.685 211.325 182.598 211.325C183.996 211.325 185.394 211.318 186.792 211.311C187.677 211.309 188.562 211.309 189.446 211.308C190.076 211.304 190.076 211.304 190.719 211.3C191.108 211.301 191.497 211.302 191.898 211.303C192.241 211.303 192.584 211.302 192.937 211.302C193.814 211.396 193.814 211.396 194.965 212.156C195.106 212.952 195.106 212.952 195.102 213.947C195.103 214.318 195.104 214.69 195.105 215.073C195.1 215.475 195.096 215.878 195.091 216.292C195.09 216.704 195.089 217.116 195.088 217.54C195.086 218.411 195.081 219.282 195.073 220.152C195.061 221.491 195.057 222.829 195.055 224.168C195.051 225.012 195.047 225.856 195.043 226.701C195.041 227.306 195.041 227.306 195.038 227.922C195.034 228.293 195.031 228.663 195.027 229.045C195.024 229.373 195.021 229.701 195.019 230.038C194.965 230.786 194.965 230.786 194.581 231.167C192.29 231.529 190.042 231.613 187.725 231.624C187.375 231.626 187.024 231.629 186.663 231.631C185.927 231.634 185.191 231.637 184.456 231.638C183.328 231.642 182.2 231.654 181.073 231.666C180.356 231.668 179.639 231.67 178.922 231.671C178.585 231.676 178.248 231.681 177.901 231.686C177.588 231.685 177.276 231.684 176.953 231.683C176.679 231.684 176.404 231.685 176.121 231.687C175.158 231.502 174.834 231.169 174.24 230.406C173.919 229.377 173.653 228.39 173.425 227.341C173.359 227.047 173.293 226.754 173.225 226.452C172.765 224.348 172.396 222.296 172.321 220.141C172.311 219.891 172.301 219.642 172.291 219.385C172.261 218.52 172.241 217.655 172.225 216.79C172.217 216.513 172.209 216.235 172.2 215.949C172.19 214.231 172.394 213.137 173.473 211.776C174.419 211.307 175.048 211.345 176.106 211.341Z" fill="#9C9B9C"/>
<path id="abs4" d="M201.131 211.242C201.725 211.235 201.725 211.235 202.33 211.228C202.971 211.229 202.971 211.229 203.624 211.231C204.063 211.229 204.501 211.227 204.953 211.225C205.881 211.222 206.809 211.223 207.737 211.226C209.159 211.23 210.582 211.219 212.004 211.207C212.905 211.206 213.805 211.206 214.706 211.207C215.346 211.201 215.346 211.201 216 211.194C216.396 211.198 216.791 211.202 217.199 211.205C217.722 211.205 217.722 211.205 218.255 211.205C219.144 211.396 219.144 211.396 219.817 212.097C222.147 216.091 220.606 223.517 219.644 227.789C218.88 230.54 218.88 230.54 217.608 231.547C216.743 231.682 216.743 231.682 215.721 231.672C215.338 231.67 214.956 231.668 214.562 231.667C214.151 231.659 213.739 231.65 213.315 231.642C212.681 231.635 212.681 231.635 212.035 231.627C210.694 231.609 209.354 231.58 208.014 231.547C207.35 231.532 207.35 231.532 206.672 231.517C205.4 231.486 204.128 231.447 202.856 231.404C202.461 231.393 202.066 231.381 201.659 231.369C201.295 231.354 200.931 231.339 200.555 231.324C200.234 231.312 199.913 231.3 199.583 231.288C198.803 231.167 198.803 231.167 198.035 230.406C197.935 229.644 197.935 229.644 197.93 228.698C197.926 228.344 197.922 227.99 197.919 227.625C197.919 227.241 197.919 226.858 197.92 226.463C197.918 226.07 197.916 225.677 197.915 225.273C197.912 224.441 197.912 223.609 197.914 222.777C197.915 221.502 197.906 220.227 197.896 218.952C197.896 218.145 197.895 217.337 197.896 216.53C197.892 216.148 197.889 215.765 197.885 215.371C197.887 215.015 197.89 214.66 197.892 214.294C197.892 213.982 197.892 213.669 197.891 213.347C198.035 212.536 198.035 212.536 198.498 211.866C199.416 211.239 200.019 211.249 201.131 211.242Z" fill="#9C9C9C"/>
<path id="abs5" d="M194.581 233.828H192.721H189H182.492L178 234L176.159 234.208L175.775 235.654L175.715 236.34C175.627 237.325 175.638 238.315 175.745 239.297L175.775 239.572L176 241L176.159 241.622L176.351 242.383L178 250.5L182 267L183.5 272.5L183.835 273.56L184.027 274.32L184.219 275.841V277.197L188 287.5L190.167 290.479L191.5 292L192.5 293L193.238 293.711L194.389 294.471L195.349 294.852L196.5 295V284.5V281.5V277.5L196 271L195.924 262.442L195.732 256.641L195.541 247.135L195.732 243.5L195.863 241.283L195.732 239.5L195.541 238L194.581 233.828Z" fill="#9C9C9C"/>
<path id="abs6" d="M202.065 233.828L211 233.5L214 233.828L215.5 234.042L216.841 234.208L217.225 235V237L217.033 239.341L216.841 241.666L216.5 244L216 246L215 251L214 255L211.5 265L209.165 273.781L209 274.5V276L209.165 277V277.172L208.397 279.073L205.327 286.677L203.024 289.909L201.5 292L200 293.5L199.5 294L198.5 294.5L197.5 295H196.5V290V280V278V276.5V275.5L196.692 272.419L196.884 269.188L197.076 262.724L197.268 256.831L197.5 246.5L197.651 242.256L197.843 238.391V237.44V236.889C197.843 236.244 197.908 235.601 198.035 234.969L198.419 233.828H202.065Z" fill="#9C9C9C"/>
</g>
<defs>
<clipPath id="clip0_1_2">
<rect width="393" height="584" fill="white"/>
</clipPath>
</defs>
</svg>
